<svg version="1.1" id="Layer_1" xmlns="http://www.w3.org/2000/svg" xmlns:xlink="http://www.w3.org/1999/xlink" x="0px" y="0px"
	 width="100%" viewBox="0 0 544 144" enable-background="new 0 0 544 144" xml:space="preserve">
<path fill="#FDFEFE" opacity="1.000000" stroke="none" 
	d="
M359.000000,145.000000 
	C239.333374,145.000000 120.166756,145.000000 1.000096,145.000000 
	C1.000064,97.000061 1.000064,49.000118 1.000032,1.000134 
	C182.333206,1.000090 363.666412,1.000090 544.999756,1.000045 
	C544.999817,48.999859 544.999817,96.999718 544.999878,144.999786 
	C483.166656,145.000000 421.333344,145.000000 359.000000,145.000000 
M91.641502,114.950104 
	C91.853027,114.914383 92.064560,114.878662 92.654625,114.864311 
	C92.654625,114.864311 93.009644,114.997375 93.455475,115.538727 
	C94.718498,115.200279 96.083351,115.061150 97.222054,114.479385 
	C99.220009,113.458618 101.079414,112.166679 103.379997,111.528297 
	C105.058495,112.796936 106.655365,113.414825 107.601807,110.777443 
	C108.768219,107.527107 109.867744,104.252762 111.387428,100.453613 
	C115.850822,96.452660 120.461746,92.600662 124.715263,88.387794 
	C126.835938,86.287399 128.302460,83.526535 130.730972,80.946709 
	C132.486908,79.631157 134.242844,78.315605 136.733170,76.922264 
	C141.645569,76.021004 140.301682,71.389236 141.828278,68.454857 
	C143.539047,65.166451 142.366837,63.940567 138.727844,63.370087 
	C138.816254,57.914753 138.904663,52.459423 139.620132,46.674152 
	C142.923935,42.461384 139.260468,43.227928 136.993973,42.247902 
	C136.995987,41.498550 136.997986,40.749199 137.689362,39.889633 
	C138.783249,38.248055 139.877136,36.606476 140.971024,34.964897 
	C140.672760,34.547161 140.374496,34.129425 140.076233,33.711689 
	C138.381622,34.476421 136.687012,35.241154 134.415680,35.722031 
	C133.943176,34.816212 133.470673,33.910397 132.988693,32.250332 
	C131.659866,31.166176 130.331055,30.082022 129.000916,28.173328 
	C129.473114,21.420023 123.491394,22.772291 119.277924,20.878653 
	C116.520142,19.922775 113.762360,18.966898 110.528915,17.459398 
	C108.349625,17.641008 106.170334,17.822617 103.234375,18.012974 
	C102.730637,18.054440 102.226891,18.095903 101.347641,18.155119 
	C101.347641,18.155119 100.989395,18.041138 100.876694,17.315918 
	C95.707047,18.030430 90.535179,18.730370 85.376442,19.516483 
	C85.184143,19.545784 85.119682,20.414017 84.636421,21.078522 
	C84.636421,21.078522 84.234756,21.131094 83.385796,21.043499 
	C80.253693,20.036726 77.121590,19.029953 73.907906,17.278759 
	C72.794258,16.503065 71.768936,15.282042 70.549416,15.040154 
	C67.595886,14.454336 64.383446,14.829238 61.583378,13.894357 
	C57.265087,12.452570 55.636871,13.609636 55.677929,18.759285 
	C55.774242,22.836220 55.870552,26.913153 55.281456,31.059210 
	C53.181686,31.039806 51.081921,31.020401 48.851048,30.206915 
	C48.894043,29.137587 48.937035,28.068256 49.675488,26.990406 
	C50.283924,26.625296 50.892357,26.260187 51.500790,25.895075 
	C50.658211,25.597178 49.815628,25.299280 48.838249,24.257854 
	C48.870075,23.505062 48.901901,22.752272 49.589203,21.913456 
	C49.175121,20.931128 49.029045,19.463192 48.296078,19.058666 
	C46.202488,17.903212 44.163925,17.759729 44.000702,21.084366 
	C44.000702,21.084366 44.092266,21.079245 43.264538,21.023670 
	C40.025578,21.355362 36.276218,20.753435 35.261604,25.187498 
	C35.261604,25.187498 35.302368,25.369104 34.567749,25.169098 
	C32.879868,26.361731 31.065388,27.413292 29.537605,28.784327 
	C27.805452,30.338764 26.642769,32.898922 24.680540,33.751534 
	C20.048437,35.764240 21.439749,37.688992 24.013399,40.673222 
	C23.659767,41.448334 23.306135,42.223446 22.223803,43.134007 
	C21.497141,44.331917 20.569954,45.454380 20.085035,46.743244 
	C19.034630,49.535107 18.210587,52.412128 17.293972,55.254326 
	C16.773365,55.345131 16.252756,55.435940 15.732150,55.526745 
	C17.471151,57.348095 19.210154,59.169445 21.115473,61.618431 
	C21.141666,62.049500 21.167860,62.480572 20.575611,63.370033 
	C21.012672,66.025780 21.016228,68.847717 21.959873,71.309265 
	C26.709055,83.697769 36.579475,92.093102 45.801567,100.925140 
	C46.452450,101.548492 48.540394,100.671310 49.960110,100.491867 
	C49.624352,99.328156 49.288593,98.164452 48.828987,96.069572 
	C48.883129,75.713112 48.937271,55.356647 49.671242,34.939728 
	C51.769344,34.629921 53.867447,34.320114 55.978645,34.946228 
	C55.654976,48.869129 55.273411,62.791069 55.043491,76.715523 
	C54.975956,80.805656 55.519257,84.905197 55.467144,88.996414 
	C55.349796,98.209030 52.298550,108.014290 61.151646,115.257172 
	C62.225571,116.135780 63.985851,117.754517 64.485054,117.455574 
	C65.889740,116.614388 67.144508,115.098488 67.802834,113.566856 
	C68.349747,112.294403 67.991714,110.622292 67.991989,109.127205 
	C67.996384,85.355339 67.977463,61.583447 68.015526,37.811642 
	C68.019875,35.095074 67.337608,31.919548 71.596214,30.971478 
	C71.596214,30.971478 71.969284,31.169842 72.008743,31.986757 
	C72.146439,38.406120 72.349121,44.824921 72.404457,51.244991 
	C72.465881,58.371372 72.388283,65.498901 72.379555,72.625946 
	C72.369034,81.223801 72.250404,89.823631 72.393967,98.418999 
	C72.543076,107.346497 72.664787,116.296570 73.502541,125.170296 
	C73.655540,126.790863 77.048706,128.409775 79.237709,129.352386 
	C79.912926,129.643127 81.555069,127.688431 82.970222,126.995918 
	C82.970222,126.995918 82.768814,126.749916 83.515862,126.858582 
	C86.721016,124.918564 87.282555,119.769730 84.835205,113.062553 
	C84.868980,109.381996 84.902756,105.701439 85.552544,101.444748 
	C85.699905,99.650444 85.972427,97.856346 85.975388,96.061806 
	C86.007317,76.706169 85.996796,57.350464 86.708725,37.865685 
	C88.134132,36.582340 89.559547,35.298996 90.986908,34.945175 
	C90.659081,48.933262 90.270103,62.920528 90.081734,76.910492 
	C90.058495,78.636772 91.104752,80.377449 91.671082,83.002647 
	C91.734459,91.337769 91.797836,99.672890 91.564621,108.193436 
	C91.668015,108.459686 91.771400,108.725937 91.988472,109.735619 
	C91.938377,110.483498 91.888290,111.231369 91.416389,111.980865 
	C91.416389,111.980865 90.993896,111.991760 90.322319,112.110527 
	C89.938133,113.038521 89.553955,113.966522 89.169769,114.894516 
	C89.779640,114.927498 90.389519,114.960480 91.641502,114.950104 
M258.216583,97.948112 
	C256.102386,98.905922 253.988174,99.863739 251.855713,99.945953 
	C252.465622,94.809006 248.429260,92.306145 244.482498,93.029922 
	C241.103989,93.649521 238.771866,97.270027 240.193848,100.646469 
	C240.953079,102.449295 243.086533,104.292725 244.978058,104.862885 
	C248.314850,105.868675 250.522034,103.625931 252.928253,100.618462 
	C254.518097,103.452721 255.623062,107.385300 261.025330,103.877472 
	C263.029510,103.764442 265.033661,103.651413 267.175079,104.458313 
	C269.700409,105.875336 270.340454,104.695976 270.308472,102.292686 
	C270.268188,99.265709 269.532867,95.798897 274.160156,95.217300 
	C274.447876,95.181152 274.606995,94.122208 274.915649,93.300278 
	C272.218689,93.300278 269.809601,93.300278 267.073303,93.300278 
	C267.073303,96.958755 267.073303,100.393425 266.157074,104.229454 
	C265.368774,102.210686 264.678802,100.145973 263.763062,98.186768 
	C262.937408,96.420265 262.142181,93.650642 260.836456,93.326630 
	C258.822296,92.826836 256.383850,94.036682 254.125412,94.521347 
	C254.242645,95.101219 254.359894,95.681099 254.477127,96.260979 
	C256.388000,96.154251 258.298859,96.047516 261.010101,95.896080 
	C259.988251,96.993317 259.496613,97.521233 258.216583,97.948112 
M214.582382,104.931534 
	C214.707458,104.623421 214.832535,104.315308 215.156281,103.156799 
	C215.161942,101.826256 214.813080,100.355698 215.268417,99.202744 
	C215.769699,97.933418 217.010193,96.956039 217.928665,95.851479 
	C218.560425,96.970505 219.532242,98.029289 219.743683,99.222771 
	C220.054947,100.979851 219.823959,102.833008 219.823959,104.665024 
	C222.855713,104.407318 223.656631,102.269020 222.923767,96.952553 
	C222.216873,91.824341 218.732910,92.690636 215.339325,93.850647 
	C215.191330,91.961189 215.075119,90.477661 215.037781,88.428848 
	C214.699127,88.329536 214.360458,88.230232 213.142288,88.000969 
	C212.948441,93.612373 212.754593,99.223770 212.560760,104.835167 
	C213.045975,104.847191 213.531189,104.859215 214.582382,104.931534 
M344.407837,68.606987 
	C346.820282,68.760521 349.232697,68.914062 351.744629,69.073936 
	C351.744629,54.363918 351.744629,40.336086 351.744629,26.366158 
	C341.449493,25.220160 341.465698,25.225681 338.363281,34.329308 
	C335.835541,41.746517 333.263000,49.148460 330.214905,57.995144 
	C327.103699,48.965420 324.622101,41.417904 321.901459,33.957561 
	C318.771942,25.375992 318.679810,25.405739 309.270386,26.149994 
	C308.982758,26.172745 308.715942,26.458263 308.353394,26.671991 
	C308.353394,40.668903 308.353394,54.699627 308.353394,68.637573 
	C311.046387,68.637573 313.285919,68.637573 315.913849,68.637573 
	C315.913849,59.841305 315.913849,51.440273 315.913849,43.039242 
	C319.527222,50.271294 322.346954,57.654488 324.839355,65.146584 
	C325.759857,67.913597 326.946350,69.143867 330.060303,69.162552 
	C333.306366,69.182014 334.375916,67.672974 335.129150,64.956657 
	C335.881165,62.244820 337.058685,59.650967 338.711761,56.894993 
	C339.124512,55.258499 339.537292,53.622009 339.972046,51.399929 
	C340.207245,50.874866 340.442444,50.349804 341.523285,50.052017 
	C342.014465,51.650574 342.779114,53.221504 342.943939,54.853027 
	C343.384094,59.210369 343.566528,63.593735 344.407837,68.606987 
M187.875000,31.902287 
	C185.445282,30.044868 183.149338,26.843483 180.560379,26.585747 
	C173.226181,25.855614 165.772079,26.330032 158.395081,26.330032 
	C158.395081,40.730099 158.395081,54.744217 158.395081,68.994072 
	C165.857712,68.994072 172.853531,69.286369 179.814987,68.921959 
	C189.040695,68.439018 194.634171,59.647720 190.803772,51.553768 
	C189.562469,48.930801 186.766953,47.043346 184.434387,44.554909 
	C187.935150,41.623665 190.012405,37.720226 187.875000,31.902287 
M403.637512,69.035263 
	C407.957672,69.027664 412.297668,69.281143 416.593628,68.954910 
	C424.164307,68.379990 430.575928,65.524498 433.432892,57.875248 
	C435.947815,51.141712 435.911407,44.200802 433.534943,37.389465 
	C431.640686,31.960337 427.657471,28.044762 422.189697,27.201714 
	C414.441101,26.007004 406.504364,26.032442 398.297913,25.514320 
	C398.297913,40.473869 398.297913,54.352242 398.297913,68.669670 
	C399.822510,68.796989 401.249786,68.916191 403.637512,69.035263 
M282.953430,64.477074 
	C282.953430,62.145065 282.953430,59.813057 282.953430,57.481049 
	C286.532959,60.282028 289.063110,63.142410 291.224487,66.258591 
	C294.168274,70.502815 297.956360,68.960236 302.666107,68.575745 
	C299.224640,63.908951 296.496613,59.767433 293.304596,56.021278 
	C290.760925,53.035984 290.771515,50.751434 293.378418,47.837322 
	C296.181946,44.703396 298.524353,41.156948 301.039520,37.828140 
	C290.555878,33.369709 289.107361,43.906628 282.799896,48.215359 
	C282.799896,39.644848 282.799896,31.959507 282.799896,24.227867 
	C279.668213,24.227867 277.236572,24.227867 274.494385,24.227867 
	C274.494385,39.201550 274.494385,53.887558 274.494385,68.518753 
	C281.923218,69.648460 282.182434,69.546021 282.953430,64.477074 
M364.845398,53.724785 
	C366.690796,58.540661 368.683044,63.306705 370.339203,68.186798 
	C371.911987,72.821259 369.477386,76.047577 364.595154,76.186180 
	C362.980621,76.232018 361.363678,76.193405 359.461487,76.193405 
	C359.099640,78.506569 358.783875,80.524872 358.477570,82.482903 
	C369.161072,85.038750 375.261078,82.215401 378.369293,73.754402 
	C380.777252,67.199684 383.253601,60.670101 385.693970,54.127281 
	C387.750824,48.612728 389.799744,43.095215 391.900574,37.448887 
	C383.592621,36.416241 383.593872,36.416679 381.235107,43.149193 
	C379.523071,48.035748 377.807281,52.920986 376.093201,57.806816 
	C373.009735,52.693668 371.203796,47.731808 369.358429,42.784679 
	C366.859131,36.084526 366.735870,36.032856 358.667145,37.728413 
	C360.645081,42.871899 362.595123,47.942856 364.845398,53.724785 
M239.139999,65.355034 
	C246.990997,71.199326 257.057037,71.106934 262.886688,65.137077 
	C268.063751,59.835495 268.471863,48.181625 263.702026,41.853390 
	C259.323944,36.044895 248.977646,34.566826 241.785873,38.722450 
	C233.823715,43.323231 232.314240,55.708229 239.139999,65.355034 
M469.943420,41.639557 
	C466.285706,39.871761 462.793304,37.272034 458.936615,36.505871 
	C450.381317,34.806290 442.746521,40.844982 441.312012,49.564560 
	C439.614380,59.883598 444.905823,67.818512 454.602478,69.494728 
	C463.633331,71.055862 471.931854,65.947922 472.862549,57.003815 
	C473.360229,52.221378 471.296478,47.172398 469.943420,41.639557 
M199.511581,62.782024 
	C204.336395,68.970718 211.461166,71.177948 219.046326,68.833847 
	C225.387772,66.874084 228.872635,61.823868 229.358459,53.889530 
	C229.963577,44.007034 224.677414,37.608051 214.911240,36.400940 
	C206.234177,35.328445 198.611679,40.381809 197.493515,49.022518 
	C196.947281,53.243500 198.522079,57.738960 199.511581,62.782024 
M480.908325,62.336483 
	C486.173706,69.879601 497.508575,72.260185 504.088684,66.897430 
	C505.873077,65.443169 507.625488,62.945442 507.743439,60.834499 
	C507.812164,59.605316 504.607880,58.193214 502.947632,56.918224 
	C497.867126,62.456371 493.513000,63.622105 490.213562,60.724102 
	C487.090546,57.981068 486.724335,49.196213 489.592499,45.825195 
	C492.346771,42.587948 496.795746,43.199837 502.706360,47.737911 
	C504.493317,46.467930 506.321899,45.168343 507.985443,43.986065 
	C505.492004,36.479832 494.490723,34.614380 487.351593,37.905205 
	C479.207367,41.659351 476.568268,50.885487 480.908325,62.336483 
M171.188126,98.434258 
	C171.188126,100.542740 171.188126,102.651215 171.188126,104.947037 
	C176.260071,104.837975 181.695419,106.714447 184.052597,101.276215 
	C185.187836,98.657097 185.013168,94.409286 183.592239,91.970924 
	C180.895279,87.342865 175.849014,89.067139 171.187164,89.158722 
	C171.187164,92.209511 171.187164,94.842232 171.188126,98.434258 
M277.925690,104.071434 
	C280.982178,104.408981 284.038666,104.746536 287.212402,105.097038 
	C287.212402,99.115532 287.212402,93.630363 287.212402,88.145195 
	C286.652222,87.980888 286.092041,87.816589 285.531891,87.652283 
	C284.956635,89.554184 284.381409,91.456085 284.192505,92.080612 
	C281.200836,93.330482 277.751434,93.727829 277.106964,95.285606 
	C276.141602,97.619049 277.146667,100.767654 277.925690,104.071434 
M234.656662,104.794327 
	C238.239914,102.773697 239.060242,99.293854 237.207535,96.304321 
	C235.949066,94.273689 232.681686,93.488045 230.312698,92.145638 
	C230.035461,92.499397 229.758209,92.853157 229.480972,93.206909 
	C229.327774,91.503380 229.174576,89.799843 229.013153,88.005035 
	C225.827744,89.045631 224.988876,96.557968 226.764191,104.994774 
	C229.056274,104.994774 231.429138,104.994774 234.656662,104.794327 
M293.164062,109.996597 
	C293.677307,108.263077 294.190582,106.529556 294.712830,104.765663 
	C295.995483,104.840233 297.349884,105.206245 298.562286,104.935684 
	C302.224060,104.118507 303.449036,101.093918 302.544037,98.112221 
	C301.932709,96.098007 299.659210,94.052322 297.629364,93.167625 
	C295.883881,92.406876 293.430450,93.270592 290.963806,93.438179 
	C290.963806,96.934525 290.812225,100.394554 291.020508,103.832787 
	C291.146179,105.907036 291.831116,107.947411 293.164062,109.996597 
M193.352783,92.954109 
	C191.485855,93.590591 189.618927,94.227081 187.751999,94.863564 
	C187.918625,95.354576 188.085251,95.845581 188.251877,96.336586 
	C190.170471,96.204353 192.089066,96.072113 194.007660,95.939873 
	C192.694443,97.569733 190.941925,97.892532 189.634689,98.833748 
	C188.639587,99.550224 187.533813,101.172417 187.711838,102.171715 
	C187.903931,103.249931 189.476395,104.783119 190.545212,104.867302 
	C193.290100,105.083527 196.089554,104.607254 198.572083,104.428970 
	C198.118134,101.889900 197.981766,99.475853 197.197998,97.294395 
	C196.627197,95.705643 195.202042,94.423851 193.352783,92.954109 
M306.603119,93.800758 
	C306.083435,94.367683 305.563751,94.934616 305.044067,95.501534 
	C305.668884,95.821846 306.284546,96.387817 306.920380,96.411438 
	C308.250702,96.460876 309.591644,96.224426 310.928253,96.105392 
	C309.553101,97.748421 307.872314,97.961327 306.658020,98.827927 
	C305.661987,99.538795 304.546265,101.141998 304.716064,102.139954 
	C304.900177,103.222031 306.454163,104.783089 307.510590,104.866188 
	C310.265564,105.082893 313.075104,104.605713 315.796295,104.410065 
	C315.265930,102.400314 314.492371,100.609749 314.364899,98.774315 
	C313.963989,92.999664 313.472565,92.544556 306.603119,93.800758 
M342.224274,102.703461 
	C341.134613,102.485497 340.043793,102.273163 338.955597,102.048157 
	C337.624268,101.772873 336.295135,101.486969 334.965088,101.205658 
	C335.042023,100.869644 335.118958,100.533638 335.195923,100.197632 
	C337.643463,100.085983 340.091003,99.974335 344.063843,99.793106 
	C342.267212,97.049805 341.424713,94.315041 339.705688,93.550171 
	C338.022461,92.801208 334.138306,93.396400 333.540680,94.576637 
	C332.377258,96.874168 331.724121,100.628296 332.868378,102.631989 
	C334.883270,106.160172 338.606903,105.933281 342.224274,102.703461 
M321.368317,93.902122 
	C319.416870,92.412979 318.013306,92.312836 317.976288,95.320045 
	C317.937622,98.458855 317.967651,101.598518 317.967651,104.755966 
	C322.855652,105.644234 320.939514,102.110977 321.072479,100.423630 
	C321.305267,97.469406 321.330383,94.819817 325.488373,96.270645 
	C326.394623,104.378113 326.394623,104.378113 328.912750,104.800148 
	C328.912750,102.598450 328.963898,100.455566 328.902496,98.315903 
	C328.760040,93.353035 327.459473,92.465164 321.368317,93.902122 
M202.578674,101.698120 
	C201.735016,101.894165 200.891357,102.090202 198.993011,102.531319 
	C203.079636,105.303680 206.695770,106.668571 208.869522,103.330536 
	C212.390259,97.924057 205.324860,98.939102 203.264664,96.212700 
	C205.516022,95.976791 207.258728,95.794174 210.217041,95.484184 
	C206.347717,92.415413 202.958145,91.554955 201.120255,94.761719 
	C198.083832,100.059708 204.900192,98.882591 206.984406,101.950500 
	C205.366226,101.950500 204.345108,101.950500 202.578674,101.698120 
M346.209808,104.228500 
	C347.415497,104.475533 348.621185,104.722565 349.826874,104.969597 
	C345.287231,99.687584 350.862579,92.391113 346.745117,87.865471 
	C346.114929,87.994240 345.484711,88.123016 344.854492,88.251785 
	C345.119049,93.353188 345.383606,98.454582 346.209808,104.228500 
M27.414062,25.655212 
	C27.722155,24.590389 28.030245,23.525568 28.338337,22.460747 
	C27.581791,22.521807 26.825245,22.582865 26.068697,22.643925 
	C26.285776,23.659420 26.502855,24.674913 27.414062,25.655212 
M93.482506,117.588524 
	C93.482506,117.588524 93.415253,117.476341 93.482506,117.588524 
z"/>
<path fill="#60BAC7" opacity="1.000000" stroke="none" 
	d="
M100.989395,18.041138 
	C100.989395,18.041138 101.347641,18.155119 101.637108,18.594543 
	C101.972549,47.572762 102.044693,76.111610 101.988258,104.650200 
	C101.985397,106.097824 101.222687,107.885139 100.207611,108.919342 
	C98.017532,111.150719 95.432861,112.994820 93.009644,114.997375 
	C93.009644,114.997375 92.654625,114.864311 92.419220,114.495041 
	C92.068611,113.410255 91.953407,112.694756 91.838196,111.979248 
	C91.888290,111.231369 91.938377,110.483498 91.983627,109.117126 
	C91.939583,108.335098 91.900398,108.171555 91.861206,108.008011 
	C91.797836,99.672890 91.734459,91.337769 91.811333,82.177902 
	C91.951584,64.099594 91.951584,46.846035 91.951584,28.631632 
	C90.043480,29.573431 88.819557,30.177530 87.435913,30.801758 
	C87.276184,30.821886 86.999855,30.987139 86.624802,31.054832 
	C85.589577,33.036430 84.368301,34.946602 84.355537,36.864815 
	C84.219536,57.302170 84.263344,77.740829 84.306335,98.179024 
	C84.309029,99.460083 84.717064,100.740280 84.936523,102.020882 
	C84.902756,105.701439 84.868980,109.381996 84.663139,113.856125 
	C83.916992,118.683105 83.342903,122.716515 82.768814,126.749916 
	C82.768814,126.749916 82.970222,126.995918 82.510529,126.948013 
	C79.955231,128.502380 77.844887,128.461868 76.625778,126.088081 
	C75.630272,124.149658 74.856758,121.839989 74.847626,119.691254 
	C74.731628,92.406555 74.836929,65.120758 74.650818,37.836834 
	C74.635612,35.608505 72.903580,33.391895 71.969284,31.169842 
	C71.969284,31.169842 71.596214,30.971478 71.142830,30.658178 
	C69.376030,29.905970 68.062607,29.467062 65.853134,28.728716 
	C65.853134,57.950352 65.853134,86.260399 65.853134,114.570450 
	C65.287125,114.822693 64.721115,115.074936 64.155106,115.327179 
	C62.297958,111.144920 57.004341,109.646004 57.016552,103.979187 
	C57.078243,75.353294 57.110779,46.727337 57.367241,18.055130 
	C57.580944,18.008856 57.993053,17.862110 58.400803,17.942463 
	C64.903183,19.335266 70.964851,20.849087 77.109627,21.855349 
	C79.384140,22.227823 81.853989,21.407452 84.234756,21.131094 
	C84.234756,21.131094 84.636421,21.078522 85.207535,20.982998 
	C90.848900,19.938696 95.919151,18.989918 100.989395,18.041138 
z"/>
<path fill="#61BBC7" opacity="1.000000" stroke="none" 
	d="
M22.952503,42.998558 
	C23.306135,42.223446 23.659767,41.448334 24.317621,40.147789 
	C28.182018,34.871277 31.742195,30.120192 35.302368,25.369106 
	C35.302368,25.369104 35.261604,25.187498 35.656555,25.276684 
	C38.731762,23.936995 41.412014,22.508120 44.092266,21.079245 
	C44.092266,21.079245 44.000702,21.084366 44.361984,21.093246 
	C46.126755,21.401243 47.530239,21.700361 48.933727,21.999479 
	C48.901901,22.752272 48.870075,23.505062 48.842167,24.960655 
	C48.890736,26.108612 48.935383,26.553770 48.980030,26.998928 
	C48.937035,28.068256 48.894043,29.137587 48.850670,31.000801 
	C48.897331,32.863186 48.944374,33.931683 48.991413,35.000183 
	C48.937271,55.356647 48.883129,75.713112 48.702187,96.781677 
	C47.980362,97.413925 47.170090,97.557495 46.821579,97.221756 
	C36.407043,87.188522 24.399458,78.329254 21.194054,62.911640 
	C21.167860,62.480572 21.141666,62.049500 21.101463,60.936874 
	C21.713928,58.514015 22.340401,56.772713 22.966873,55.031410 
	C22.695568,55.046875 22.424265,55.062336 22.152960,55.077801 
	C22.419474,51.051388 22.685987,47.024971 22.952503,42.998558 
M33.963726,59.263813 
	C30.499336,62.763966 32.197189,68.685898 38.402180,72.182793 
	C38.630287,68.929474 38.745087,66.084068 39.050014,63.259186 
	C39.404949,59.971020 38.055725,58.632004 33.963726,59.263813 
M39.016125,39.302814 
	C38.374306,38.879795 37.732487,38.456776 37.090668,38.033760 
	C35.074429,41.582359 33.058189,45.130959 30.594980,49.466228 
	C34.431850,49.466228 36.583366,49.466228 39.036434,49.466228 
	C39.036434,46.030365 39.036434,43.078163 39.016125,39.302814 
z"/>
<path fill="#5FBBC6" opacity="1.000000" stroke="none" 
	d="
M338.049683,57.005386 
	C337.058685,59.650967 335.881165,62.244820 335.129150,64.956657 
	C334.375916,67.672974 333.306366,69.182014 330.060303,69.162552 
	C326.946350,69.143867 325.759857,67.913597 324.839355,65.146584 
	C322.346954,57.654488 319.527222,50.271294 315.913849,43.039242 
	C315.913849,51.440273 315.913849,59.841305 315.913849,68.637573 
	C313.285919,68.637573 311.046387,68.637573 308.353394,68.637573 
	C308.353394,54.699627 308.353394,40.668903 308.353394,26.671991 
	C308.715942,26.458263 308.982758,26.172745 309.270386,26.149994 
	C318.679810,25.405739 318.771942,25.375992 321.901459,33.957561 
	C324.622101,41.417904 327.103699,48.965420 330.214905,57.995144 
	C333.263000,49.148460 335.835541,41.746517 338.363281,34.329308 
	C341.465698,25.225681 341.449493,25.220160 351.744629,26.366158 
	C351.744629,40.336086 351.744629,54.363918 351.744629,69.073936 
	C349.232697,68.914062 346.820282,68.760521 344.218689,67.829254 
	C343.616211,60.196434 345.326996,53.161278 342.218658,45.219307 
	C341.448364,47.521389 341.062988,48.673065 340.677643,49.824741 
	C340.442444,50.349804 340.207245,50.874866 339.712341,51.922523 
	C338.984955,53.965210 338.517303,55.485298 338.049683,57.005386 
z"/>
<path fill="#5EBBC6" opacity="1.000000" stroke="none" 
	d="
M188.011261,32.264057 
	C190.012405,37.720226 187.935150,41.623665 184.434387,44.554909 
	C186.766953,47.043346 189.562469,48.930801 190.803772,51.553768 
	C194.634171,59.647720 189.040695,68.439018 179.814987,68.921959 
	C172.853531,69.286369 165.857712,68.994072 158.395081,68.994072 
	C158.395081,54.744217 158.395081,40.730099 158.395081,26.330032 
	C165.772079,26.330032 173.226181,25.855614 180.560379,26.585747 
	C183.149338,26.843483 185.445282,30.044868 188.011261,32.264057 
M182.295761,53.344040 
	C178.249496,47.456791 172.486649,50.971046 167.246155,50.004829 
	C167.246155,54.295059 167.246155,57.952145 167.246155,61.987099 
	C170.438644,61.987099 173.222916,62.077209 175.999359,61.967949 
	C181.428955,61.754280 183.040192,59.779438 182.295761,53.344040 
M179.881073,35.935078 
	C176.555344,30.737286 171.672440,33.852493 167.220703,33.032566 
	C167.220703,36.599468 167.220703,39.591980 167.220703,42.985882 
	C169.726318,42.985882 171.839966,42.980312 173.953583,42.987057 
	C178.127258,43.000378 180.607773,41.355972 179.881073,35.935078 
z"/>
<path fill="#5FBBC6" opacity="1.000000" stroke="none" 
	d="
M403.157288,69.035324 
	C401.249786,68.916191 399.822510,68.796989 398.297913,68.669670 
	C398.297913,54.352242 398.297913,40.473869 398.297913,25.514320 
	C406.504364,26.032442 414.441101,26.007004 422.189697,27.201714 
	C427.657471,28.044762 431.640686,31.960337 433.534943,37.389465 
	C435.911407,44.200802 435.947815,51.141712 433.432892,57.875248 
	C430.575928,65.524498 424.164307,68.379990 416.593628,68.954910 
	C412.297668,69.281143 407.957672,69.027664 403.157288,69.035324 
M408.726501,61.926949 
	C410.716553,61.938171 412.913330,62.497757 414.652100,61.842335 
	C417.908691,60.614738 422.158997,59.461819 423.749847,56.888988 
	C427.521698,50.789009 427.586945,43.588558 423.526398,37.546764 
	C419.673706,31.814215 413.300385,32.706009 407.464844,33.379585 
	C407.223541,34.046329 407.021332,34.348320 407.018127,34.652397 
	C406.967773,39.460629 406.813782,44.272812 406.951019,49.076454 
	C407.071686,53.299217 407.524811,57.512486 408.726501,61.926949 
z"/>
<path fill="#63BDC7" opacity="1.000000" stroke="none" 
	d="
M282.950348,64.926201 
	C282.182434,69.546021 281.923218,69.648460 274.494385,68.518753 
	C274.494385,53.887558 274.494385,39.201550 274.494385,24.227867 
	C277.236572,24.227867 279.668213,24.227867 282.799896,24.227867 
	C282.799896,31.959507 282.799896,39.644848 282.799896,48.215359 
	C289.107361,43.906628 290.555878,33.369709 301.039520,37.828140 
	C298.524353,41.156948 296.181946,44.703396 293.378418,47.837322 
	C290.771515,50.751434 290.760925,53.035984 293.304596,56.021278 
	C296.496613,59.767433 299.224640,63.908951 302.666107,68.575745 
	C297.956360,68.960236 294.168274,70.502815 291.224487,66.258591 
	C289.063110,63.142410 286.532959,60.282028 282.953430,57.481049 
	C282.953430,59.813057 282.953430,62.145065 282.950348,64.926201 
z"/>
<path fill="#61BCC7" opacity="1.000000" stroke="none" 
	d="
M364.695282,53.369301 
	C362.595123,47.942856 360.645081,42.871899 358.667145,37.728413 
	C366.735870,36.032856 366.859131,36.084526 369.358429,42.784679 
	C371.203796,47.731808 373.009735,52.693668 376.093201,57.806816 
	C377.807281,52.920986 379.523071,48.035748 381.235107,43.149193 
	C383.593872,36.416679 383.592621,36.416241 391.900574,37.448887 
	C389.799744,43.095215 387.750824,48.612728 385.693970,54.127281 
	C383.253601,60.670101 380.777252,67.199684 378.369293,73.754402 
	C375.261078,82.215401 369.161072,85.038750 358.477570,82.482903 
	C358.783875,80.524872 359.099640,78.506569 359.461487,76.193405 
	C361.363678,76.193405 362.980621,76.232018 364.595154,76.186180 
	C369.477386,76.047577 371.911987,72.821259 370.339203,68.186798 
	C368.683044,63.306705 366.690796,58.540661 364.695282,53.369301 
z"/>
<path fill="#60BCC7" opacity="1.000000" stroke="none" 
	d="
M238.871750,65.094124 
	C232.314240,55.708229 233.823715,43.323231 241.785873,38.722450 
	C248.977646,34.566826 259.323944,36.044895 263.702026,41.853390 
	C268.471863,48.181625 268.063751,59.835495 262.886688,65.137077 
	C257.057037,71.106934 246.990997,71.199326 238.871750,65.094124 
M251.313339,43.372864 
	C245.200974,44.461182 242.643631,47.908848 243.314987,54.155815 
	C243.952148,60.084606 246.592957,62.538204 251.752518,62.237057 
	C255.872726,61.996571 257.495361,59.432278 258.026520,55.830368 
	C259.058105,48.835396 257.378052,45.470486 251.313339,43.372864 
z"/>
<path fill="#60BCC7" opacity="1.000000" stroke="none" 
	d="
M470.166077,41.941635 
	C471.296478,47.172398 473.360229,52.221378 472.862549,57.003815 
	C471.931854,65.947922 463.633331,71.055862 454.602478,69.494728 
	C444.905823,67.818512 439.614380,59.883598 441.312012,49.564560 
	C442.746521,40.844982 450.381317,34.806290 458.936615,36.505871 
	C462.793304,37.272034 466.285706,39.871761 470.166077,41.941635 
M460.740692,44.261570 
	C457.707672,44.879162 452.854645,44.608101 452.027222,46.302635 
	C450.394531,49.646416 450.266357,54.216419 450.982208,58.002090 
	C451.325531,59.817921 454.987427,62.115242 457.187439,62.159595 
	C459.393982,62.204079 462.444946,60.224262 463.721069,58.231888 
	C466.349487,54.128117 465.024933,48.613632 460.740692,44.261570 
z"/>
<path fill="#5FBCC7" opacity="1.000000" stroke="none" 
	d="
M199.324219,62.446102 
	C198.522079,57.738960 196.947281,53.243500 197.493515,49.022518 
	C198.611679,40.381809 206.234177,35.328445 214.911240,36.400940 
	C224.677414,37.608051 229.963577,44.007034 229.358459,53.889530 
	C228.872635,61.823868 225.387772,66.874084 219.046326,68.833847 
	C211.461166,71.177948 204.336395,68.970718 199.324219,62.446102 
M210.116119,61.923798 
	C212.798767,61.531895 215.966934,61.904198 218.055557,60.577278 
	C221.598541,58.326389 221.483200,48.595615 218.444717,45.505405 
	C215.048798,42.051662 208.801254,43.126312 206.754318,47.516289 
	C204.697372,51.927719 205.782303,57.855522 210.116119,61.923798 
z"/>
<path fill="#61BCC6" opacity="1.000000" stroke="none" 
	d="
M480.735840,61.988083 
	C476.568268,50.885487 479.207367,41.659351 487.351593,37.905205 
	C494.490723,34.614380 505.492004,36.479832 507.985443,43.986065 
	C506.321899,45.168343 504.493317,46.467930 502.706360,47.737911 
	C496.795746,43.199837 492.346771,42.587948 489.592499,45.825195 
	C486.724335,49.196213 487.090546,57.981068 490.213562,60.724102 
	C493.513000,63.622105 497.867126,62.456371 502.947632,56.918224 
	C504.607880,58.193214 507.812164,59.605316 507.743439,60.834499 
	C507.625488,62.945442 505.873077,65.443169 504.088684,66.897430 
	C497.508575,72.260185 486.173706,69.879601 480.735840,61.988083 
z"/>
<path fill="#FDFEFD" opacity="1.000000" stroke="none" 
	d="
M103.991043,18.004225 
	C106.170334,17.822617 108.349625,17.641008 110.767090,18.085274 
	C111.011665,19.178158 111.018074,19.645166 110.832825,20.231388 
	C110.407364,20.543926 110.203056,20.764565 109.675751,21.064331 
	C108.694374,24.365875 107.498947,27.625677 107.556511,30.863201 
	C107.670441,37.270325 108.785385,43.658249 108.928520,50.066574 
	C109.176651,61.175671 109.213234,72.300011 108.912186,83.406410 
	C108.761948,88.949318 107.668793,94.466675 107.032120,100.288910 
	C107.709145,100.719604 108.356171,100.856972 109.335388,100.993629 
	C110.110435,100.991539 110.553307,100.990158 110.996170,100.988785 
	C109.867744,104.252762 108.768219,107.527107 107.601807,110.777443 
	C106.655365,113.414825 105.058495,112.796936 103.347000,110.943794 
	C103.835594,109.351707 104.823730,108.332626 104.799225,107.338501 
	C104.684052,102.663956 104.052635,97.997078 104.036636,93.325981 
	C103.950630,68.218971 103.992996,43.111523 103.991043,18.004225 
z"/>
<path fill="#E4F9FA" opacity="1.000000" stroke="none" 
	d="
M57.153542,18.101404 
	C57.110779,46.727337 57.078243,75.353294 57.016552,103.979187 
	C57.004341,109.646004 62.297958,111.144920 64.155106,115.327179 
	C64.721115,115.074936 65.287125,114.822693 65.853134,114.570450 
	C65.853134,86.260399 65.853134,57.950352 65.853134,28.728716 
	C68.062607,29.467062 69.376030,29.905970 70.934982,30.620319 
	C67.337608,31.919548 68.019875,35.095074 68.015526,37.811642 
	C67.977463,61.583447 67.996384,85.355339 67.991989,109.127205 
	C67.991714,110.622292 68.349747,112.294403 67.802834,113.566856 
	C67.144508,115.098488 65.889740,116.614388 64.485054,117.455574 
	C63.985851,117.754517 62.225571,116.135780 61.151646,115.257172 
	C52.298550,108.014290 55.349796,98.209030 55.467144,88.996414 
	C55.519257,84.905197 54.975956,80.805656 55.043491,76.715523 
	C55.273411,62.791069 55.654976,48.869129 55.982780,34.100723 
	C55.980232,32.500175 55.973549,31.745131 55.966866,30.990088 
	C55.870552,26.913153 55.774242,22.836220 56.129272,18.397150 
	C56.771595,18.057146 56.962570,18.079275 57.153542,18.101404 
z"/>
<path fill="#E4F9FA" opacity="1.000000" stroke="none" 
	d="
M71.989014,31.578300 
	C72.903580,33.391895 74.635612,35.608505 74.650818,37.836834 
	C74.836929,65.120758 74.731628,92.406555 74.847626,119.691254 
	C74.856758,121.839989 75.630272,124.149658 76.625778,126.088081 
	C77.844887,128.461868 79.955231,128.502380 82.402649,126.830994 
	C81.555069,127.688431 79.912926,129.643127 79.237709,129.352386 
	C77.048706,128.409775 73.655540,126.790863 73.502541,125.170296 
	C72.664787,116.296570 72.543076,107.346497 72.393967,98.418999 
	C72.250404,89.823631 72.369034,81.223801 72.379555,72.625946 
	C72.388283,65.498901 72.465881,58.371372 72.404457,51.244991 
	C72.349121,44.824921 72.146439,38.406120 71.989014,31.578300 
z"/>
<path fill="#ECFAFA" opacity="1.000000" stroke="none" 
	d="
M111.191803,100.721199 
	C110.553307,100.990158 110.110435,100.991539 109.167343,100.749146 
	C108.112122,100.335457 107.557129,100.165527 107.002136,99.995590 
	C107.668793,94.466675 108.761948,88.949318 108.912186,83.406410 
	C109.213234,72.300011 109.176651,61.175671 108.928520,50.066574 
	C108.785385,43.658249 107.670441,37.270325 107.556511,30.863201 
	C107.498947,27.625677 108.694374,24.365875 109.715919,21.530247 
	C110.108574,47.081692 110.108574,72.219040 110.108574,97.356384 
	C110.967186,97.738594 111.825798,98.120811 112.684410,98.503029 
	C113.781166,96.864136 114.640579,94.983521 116.018326,93.630821 
	C120.495697,89.234894 125.162788,85.032196 129.833786,80.832489 
	C129.910736,80.909882 130.064865,81.064423 130.064865,81.064423 
	C128.302460,83.526535 126.835938,86.287399 124.715263,88.387794 
	C120.461746,92.600662 115.850822,96.452660 111.191803,100.721199 
z"/>
<path fill="#ECFAFA" opacity="1.000000" stroke="none" 
	d="
M103.612709,18.008598 
	C103.992996,43.111523 103.950630,68.218971 104.036636,93.325981 
	C104.052635,97.997078 104.684052,102.663956 104.799225,107.338501 
	C104.823730,108.332626 103.835594,109.351707 103.155426,110.673813 
	C101.079414,112.166679 99.220009,113.458618 97.222054,114.479385 
	C96.083351,115.061150 94.718498,115.200279 93.232559,115.268051 
	C95.432861,112.994820 98.017532,111.150719 100.207611,108.919342 
	C101.222687,107.885139 101.985397,106.097824 101.988258,104.650200 
	C102.044693,76.111610 101.972549,47.572762 101.824860,18.585667 
	C102.226891,18.095903 102.730637,18.054440 103.612709,18.008598 
z"/>
<path fill="#E4F9FA" opacity="1.000000" stroke="none" 
	d="
M85.244537,101.732819 
	C84.717064,100.740280 84.309029,99.460083 84.306335,98.179024 
	C84.263344,77.740829 84.219536,57.302170 84.355537,36.864815 
	C84.368301,34.946602 85.589577,33.036430 86.579956,31.444988 
	C86.606071,33.843227 86.301979,35.919003 85.997887,37.994778 
	C85.996796,57.350464 86.007317,76.706169 85.975388,96.061806 
	C85.972427,97.856346 85.699905,99.650444 85.244537,101.732819 
z"/>
<path fill="#F6FDFB" opacity="1.000000" stroke="none" 
	d="
M20.884832,63.140839 
	C24.399458,78.329254 36.407043,87.188522 46.821579,97.221756 
	C47.170090,97.557495 47.980362,97.413925 48.764114,97.247253 
	C49.288593,98.164452 49.624352,99.328156 49.960110,100.491867 
	C48.540394,100.671310 46.452450,101.548492 45.801567,100.925140 
	C36.579475,92.093102 26.709055,83.697769 21.959873,71.309265 
	C21.016228,68.847717 21.012672,66.025780 20.884832,63.140839 
z"/>
<path fill="#1F1F1F" opacity="1.000000" stroke="none" 
	d="
M171.187653,97.954605 
	C171.187164,94.842232 171.187164,92.209511 171.187164,89.158722 
	C175.849014,89.067139 180.895279,87.342865 183.592239,91.970924 
	C185.013168,94.409286 185.187836,98.657097 184.052597,101.276215 
	C181.695419,106.714447 176.260071,104.837975 171.188126,104.947037 
	C171.188126,102.651215 171.188126,100.542740 171.187653,97.954605 
M181.045029,93.398766 
	C179.077652,92.710739 177.110291,92.022713 174.764282,91.202278 
	C174.764282,95.473473 174.764282,98.685783 174.764282,101.864044 
	C181.287567,102.519714 182.422714,101.144524 181.045029,93.398766 
z"/>
<path fill="#222222" opacity="1.000000" stroke="none" 
	d="
M277.619690,103.820503 
	C277.146667,100.767654 276.141602,97.619049 277.106964,95.285606 
	C277.751434,93.727829 281.200836,93.330482 284.192505,92.080612 
	C284.381409,91.456085 284.956635,89.554184 285.531891,87.652283 
	C286.092041,87.816589 286.652222,87.980888 287.212402,88.145195 
	C287.212402,93.630363 287.212402,99.115532 287.212402,105.097038 
	C284.038666,104.746536 280.982178,104.408981 277.619690,103.820503 
M279.055786,98.579582 
	C279.863770,99.778854 280.671753,100.978127 281.479736,102.177399 
	C282.428162,101.477562 284.031250,100.886765 284.170258,100.052109 
	C284.374268,98.827446 283.531158,97.428368 283.134216,96.103607 
	C281.818878,96.643341 280.503510,97.183075 279.055786,98.579582 
z"/>
<path fill="#191919" opacity="1.000000" stroke="none" 
	d="
M234.229340,104.894547 
	C231.429138,104.994774 229.056274,104.994774 226.764191,104.994774 
	C224.988876,96.557968 225.827744,89.045631 229.013153,88.005035 
	C229.174576,89.799843 229.327774,91.503380 229.480972,93.206909 
	C229.758209,92.853157 230.035461,92.499397 230.312698,92.145638 
	C232.681686,93.488045 235.949066,94.273689 237.207535,96.304321 
	C239.060242,99.293854 238.239914,102.773697 234.229340,104.894547 
M232.414536,95.700531 
	C229.351013,95.758598 228.761444,97.866127 229.414062,100.106812 
	C229.686264,101.041359 231.930496,102.362991 232.619949,102.051582 
	C235.976669,100.535385 235.486069,98.220787 232.414536,95.700531 
z"/>
<path fill="#151515" opacity="1.000000" stroke="none" 
	d="
M292.714417,109.999802 
	C291.831116,107.947411 291.146179,105.907036 291.020508,103.832787 
	C290.812225,100.394554 290.963806,96.934525 290.963806,93.438179 
	C293.430450,93.270592 295.883881,92.406876 297.629364,93.167625 
	C299.659210,94.052322 301.932709,96.098007 302.544037,98.112221 
	C303.449036,101.093918 302.224060,104.118507 298.562286,104.935684 
	C297.349884,105.206245 295.995483,104.840233 294.712830,104.765663 
	C294.190582,106.529556 293.677307,108.263077 292.714417,109.999802 
M294.480530,100.991585 
	C295.925751,101.213806 297.370941,101.436035 298.816162,101.658264 
	C298.919159,100.083260 299.295258,98.451065 298.983612,96.962868 
	C298.867493,96.408287 296.415253,95.691444 296.272491,95.900040 
	C295.375275,97.211220 294.828796,98.762398 294.480530,100.991585 
z"/>
<path fill="#1B1B1B" opacity="1.000000" stroke="none" 
	d="
M193.755280,92.979660 
	C195.202042,94.423851 196.627197,95.705643 197.197998,97.294395 
	C197.981766,99.475853 198.118134,101.889900 198.572083,104.428970 
	C196.089554,104.607254 193.290100,105.083527 190.545212,104.867302 
	C189.476395,104.783119 187.903931,103.249931 187.711838,102.171715 
	C187.533813,101.172417 188.639587,99.550224 189.634689,98.833748 
	C190.941925,97.892532 192.694443,97.569733 194.007660,95.939873 
	C192.089066,96.072113 190.170471,96.204353 188.251877,96.336586 
	C188.085251,95.845581 187.918625,95.354576 187.751999,94.863564 
	C189.618927,94.227081 191.485855,93.590591 193.755280,92.979660 
z"/>
<path fill="#1B1B1B" opacity="1.000000" stroke="none" 
	d="
M306.935516,93.591339 
	C313.472565,92.544556 313.963989,92.999664 314.364899,98.774315 
	C314.492371,100.609749 315.265930,102.400314 315.796295,104.410065 
	C313.075104,104.605713 310.265564,105.082893 307.510590,104.866188 
	C306.454163,104.783089 304.900177,103.222031 304.716064,102.139954 
	C304.546265,101.141998 305.661987,99.538795 306.658020,98.827927 
	C307.872314,97.961327 309.553101,97.748421 310.928253,96.105392 
	C309.591644,96.224426 308.250702,96.460876 306.920380,96.411438 
	C306.284546,96.387817 305.668884,95.821846 305.044067,95.501541 
	C305.563751,94.934616 306.083435,94.367683 306.935516,93.591339 
z"/>
<path fill="#1D1D1D" opacity="1.000000" stroke="none" 
	d="
M342.053528,103.058456 
	C338.606903,105.933281 334.883270,106.160172 332.868378,102.631989 
	C331.724121,100.628296 332.377258,96.874168 333.540680,94.576637 
	C334.138306,93.396400 338.022461,92.801208 339.705688,93.550171 
	C341.424713,94.315041 342.267212,97.049805 344.063843,99.793106 
	C340.091003,99.974335 337.643463,100.085983 335.195923,100.197632 
	C335.118958,100.533638 335.042023,100.869644 334.965088,101.205658 
	C336.295135,101.486969 337.624268,101.772873 338.955597,102.048157 
	C340.043793,102.273163 341.134613,102.485497 342.053528,103.058456 
z"/>
<path fill="#1B1B1B" opacity="1.000000" stroke="none" 
	d="
M214.958923,88.994141 
	C215.075119,90.477661 215.191330,91.961189 215.339325,93.850647 
	C218.732910,92.690636 222.216873,91.824341 222.923767,96.952553 
	C223.656631,102.269020 222.855713,104.407318 219.823959,104.665024 
	C219.823959,102.833008 220.054947,100.979851 219.743683,99.222771 
	C219.532242,98.029289 218.560425,96.970505 217.928665,95.851479 
	C217.010193,96.956039 215.769699,97.933418 215.268417,99.202744 
	C214.813080,100.355698 215.161942,101.826256 214.852753,103.668808 
	C214.285873,104.344795 214.108276,104.574944 214.016403,104.871246 
	C213.531189,104.859215 213.045975,104.847191 212.560760,104.835175 
	C212.754593,99.223770 212.948441,93.612373 213.682907,88.262573 
	C214.418686,88.758995 214.663818,88.915649 214.958923,88.994141 
z"/>
<path fill="#151515" opacity="1.000000" stroke="none" 
	d="
M321.835846,93.812195 
	C327.459473,92.465164 328.760040,93.353035 328.902496,98.315903 
	C328.963898,100.455566 328.912750,102.598450 328.912750,104.800148 
	C326.394623,104.378113 326.394623,104.378113 325.488373,96.270645 
	C321.330383,94.819817 321.305267,97.469406 321.072479,100.423630 
	C320.939514,102.110977 322.855652,105.644234 317.967651,104.755966 
	C317.967651,101.598518 317.937622,98.458855 317.976288,95.320045 
	C318.013306,92.312836 319.416870,92.412979 321.835846,93.812195 
z"/>
<path fill="#181818" opacity="1.000000" stroke="none" 
	d="
M251.923538,100.681847 
	C250.522034,103.625931 248.314850,105.868675 244.978058,104.862885 
	C243.086533,104.292725 240.953079,102.449295 240.193848,100.646469 
	C238.771866,97.270027 241.103989,93.649521 244.482498,93.029922 
	C248.429260,92.306145 252.465622,94.809006 251.907211,100.377808 
	C251.958710,100.809662 251.923538,100.681847 251.923538,100.681847 
M243.147797,97.746918 
	C243.816055,99.224236 244.360260,100.788185 245.272781,102.094917 
	C245.427704,102.316757 247.805435,101.659988 248.033417,101.013306 
	C248.473312,99.765511 248.111862,98.235222 248.082642,96.822037 
	C246.533478,96.872215 244.984314,96.922394 243.147797,97.746918 
z"/>
<path fill="#E4F9FA" opacity="1.000000" stroke="none" 
	d="
M87.595634,30.781631 
	C88.819557,30.177530 90.043480,29.573431 91.951584,28.631632 
	C91.951584,46.846035 91.951584,64.099594 91.803497,81.732300 
	C91.104752,80.377449 90.058495,78.636772 90.081734,76.910492 
	C90.270103,62.920528 90.659081,48.933262 90.951050,34.116062 
	C89.808678,32.451843 88.702156,31.616739 87.595634,30.781631 
z"/>
<path fill="#1F1F1F" opacity="1.000000" stroke="none" 
	d="
M202.951324,101.824310 
	C204.345108,101.950500 205.366226,101.950500 206.984406,101.950500 
	C204.900192,98.882591 198.083832,100.059708 201.120255,94.761719 
	C202.958145,91.554955 206.347717,92.415413 210.217041,95.484184 
	C207.258728,95.794174 205.516022,95.976791 203.264664,96.212700 
	C205.324860,98.939102 212.390259,97.924057 208.869522,103.330536 
	C206.695770,106.668571 203.079636,105.303680 198.993011,102.531319 
	C200.891357,102.090202 201.735016,101.894165 202.951324,101.824310 
z"/>
<path fill="#ECFAFA" opacity="1.000000" stroke="none" 
	d="
M135.998779,77.000046 
	C134.242844,78.315605 132.486908,79.631157 130.397919,81.005569 
	C130.064865,81.064423 129.910736,80.909882 129.957169,80.505936 
	C136.481491,69.944923 138.332916,58.822033 137.257767,47.010059 
	C138.067581,47.004288 138.530319,47.004189 138.993057,47.004089 
	C138.904663,52.459423 138.816254,57.914753 138.705978,64.042641 
	C137.789001,68.810150 136.893890,72.905098 135.998779,77.000046 
z"/>
<path fill="#1C1C1C" opacity="1.000000" stroke="none" 
	d="
M267.037842,103.538376 
	C265.033661,103.651413 263.029510,103.764442 260.531555,103.506737 
	C259.693481,101.440384 259.349213,99.744766 259.004944,98.049149 
	C259.496613,97.521233 259.988251,96.993317 261.010101,95.896080 
	C258.298859,96.047516 256.388000,96.154251 254.477127,96.260979 
	C254.359894,95.681099 254.242645,95.101219 254.125412,94.521347 
	C256.383850,94.036682 258.822296,92.826836 260.836456,93.326630 
	C262.142181,93.650642 262.937408,96.420265 263.763062,98.186768 
	C264.678802,100.145973 265.368774,102.210686 266.601379,103.982559 
	C267.045685,103.735672 267.037842,103.538376 267.037842,103.538376 
z"/>
<path fill="#1C1C1C" opacity="1.000000" stroke="none" 
	d="
M345.928986,103.892242 
	C345.383606,98.454582 345.119049,93.353188 344.854492,88.251785 
	C345.484711,88.123016 346.114929,87.994240 346.745117,87.865471 
	C350.862579,92.391113 345.287231,99.687584 349.826874,104.969597 
	C348.621185,104.722565 347.415497,104.475533 345.928986,103.892242 
z"/>
<path fill="#1D1D1D" opacity="1.000000" stroke="none" 
	d="
M267.106445,103.998344 
	C267.037842,103.538376 267.045685,103.735672 267.059509,103.781876 
	C267.073303,100.393425 267.073303,96.958755 267.073303,93.300278 
	C269.809601,93.300278 272.218689,93.300278 274.915649,93.300278 
	C274.606995,94.122208 274.447876,95.181152 274.160156,95.217300 
	C269.532867,95.798897 270.268188,99.265709 270.308472,102.292686 
	C270.340454,104.695976 269.700409,105.875336 267.106445,103.998344 
z"/>
<path fill="#F6FDFB" opacity="1.000000" stroke="none" 
	d="
M22.588152,43.066284 
	C22.685987,47.024971 22.419474,51.051388 22.152960,55.077801 
	C22.424265,55.062336 22.695568,55.046875 22.966873,55.031410 
	C22.340401,56.772713 21.713928,58.514015 21.018307,60.623055 
	C19.210154,59.169445 17.471151,57.348095 15.732150,55.526745 
	C16.252756,55.435940 16.773365,55.345131 17.293972,55.254326 
	C18.210587,52.412128 19.034630,49.535107 20.085035,46.743244 
	C20.569954,45.454380 21.497141,44.331917 22.588152,43.066284 
z"/>
<path fill="#E4F9FA" opacity="1.000000" stroke="none" 
	d="
M83.810272,21.087296 
	C81.853989,21.407452 79.384140,22.227823 77.109627,21.855349 
	C70.964851,20.849087 64.903183,19.335266 58.487747,17.584728 
	C59.304295,16.873253 60.474777,16.273176 61.573093,16.384569 
	C65.724586,16.805614 69.852654,17.457611 73.989487,18.023178 
	C77.121590,19.029953 80.253693,20.036726 83.810272,21.087296 
z"/>
<path fill="#FDFEFD" opacity="1.000000" stroke="none" 
	d="
M136.365982,76.961151 
	C136.893890,72.905098 137.789001,68.810150 138.839478,64.357712 
	C142.366837,63.940567 143.539047,65.166451 141.828278,68.454857 
	C140.301682,71.389236 141.645569,76.021004 136.365982,76.961151 
z"/>
<path fill="#FDFEFD" opacity="1.000000" stroke="none" 
	d="
M73.948700,17.650970 
	C69.852654,17.457611 65.724586,16.805614 61.573093,16.384569 
	C60.474777,16.273176 59.304295,16.873253 58.080002,17.504375 
	C57.993053,17.862110 57.580944,18.008856 57.367241,18.055130 
	C56.962570,18.079275 56.771595,18.057146 56.292564,18.022566 
	C55.636871,13.609636 57.265087,12.452570 61.583378,13.894357 
	C64.383446,14.829238 67.595886,14.454336 70.549416,15.040154 
	C71.768936,15.282042 72.794258,16.503065 73.948700,17.650970 
z"/>
<path fill="#F6FDFB" opacity="1.000000" stroke="none" 
	d="
M34.935059,25.269102 
	C31.742195,30.120192 28.182018,34.871277 24.360580,39.829987 
	C21.439749,37.688992 20.048437,35.764240 24.680540,33.751534 
	C26.642769,32.898922 27.805452,30.338764 29.537605,28.784327 
	C31.065388,27.413292 32.879868,26.361731 34.935059,25.269102 
z"/>
<path fill="#2C2C2C" opacity="1.000000" stroke="none" 
	d="
M258.610779,97.998627 
	C259.349213,99.744766 259.693481,101.440384 260.049561,103.451797 
	C255.623062,107.385300 254.518097,103.452721 252.425903,100.650154 
	C251.923538,100.681847 251.958710,100.809662 251.916336,100.815613 
	C253.988174,99.863739 256.102386,98.905922 258.610779,97.998627 
z"/>
<path fill="#ECFAFA" opacity="1.000000" stroke="none" 
	d="
M111.024483,20.112175 
	C111.018074,19.645166 111.011665,19.178158 111.004913,18.361084 
	C113.762360,18.966898 116.520142,19.922775 119.784424,21.243134 
	C120.807915,22.790279 121.324913,23.972942 121.498703,25.083294 
	C117.778496,23.378046 114.401489,21.745111 111.024483,20.112175 
z"/>
<path fill="#FDFEFD" opacity="1.000000" stroke="none" 
	d="
M121.841911,25.155605 
	C121.324913,23.972942 120.807915,22.790279 120.143127,21.305199 
	C123.491394,22.772291 129.473114,21.420023 129.000458,28.586664 
	C129.000000,29.000000 128.998169,29.001312 128.697906,28.856525 
	C127.221138,28.175371 126.044624,27.639002 124.920250,27.063845 
	C124.972382,27.025055 124.903488,27.135250 124.887794,26.769922 
	C123.876892,25.972347 122.881691,25.540100 121.874939,25.117958 
	C121.863403,25.128061 121.841911,25.155605 121.841911,25.155605 
z"/>
<path fill="#EDFCFC" opacity="1.000000" stroke="none" 
	d="
M100.933044,17.678528 
	C95.919151,18.989918 90.848900,19.938696 85.387146,20.889385 
	C85.119682,20.414017 85.184143,19.545784 85.376442,19.516483 
	C90.535179,18.730370 95.707047,18.030430 100.933044,17.678528 
z"/>
<path fill="#E4F9FA" opacity="1.000000" stroke="none" 
	d="
M83.142334,126.804245 
	C83.342903,122.716515 83.916992,118.683105 84.705887,114.313522 
	C87.282555,119.769730 86.721016,124.918564 83.142334,126.804245 
z"/>
<path fill="#ECFAFA" opacity="1.000000" stroke="none" 
	d="
M137.000000,39.999847 
	C136.997986,40.749199 136.995987,41.498550 136.650513,42.640457 
	C136.078583,43.045364 135.850113,43.057724 135.397202,42.835445 
	C133.499802,39.388481 131.826859,36.176151 130.509430,32.971008 
	C131.576035,32.986992 132.287094,32.995785 132.998169,33.004578 
	C133.470673,33.910397 133.943176,34.816212 134.846924,36.157661 
	C135.852112,37.728809 136.426056,38.864326 137.000000,39.999847 
z"/>
<path fill="#E0F9FA" opacity="1.000000" stroke="none" 
	d="
M341.100464,49.938377 
	C341.062988,48.673065 341.448364,47.521389 342.218658,45.219307 
	C345.326996,53.161278 343.616211,60.196434 343.940430,67.509140 
	C343.566528,63.593735 343.384094,59.210369 342.943939,54.853027 
	C342.779114,53.221504 342.014465,51.650574 341.100464,49.938377 
z"/>
<path fill="#FDFEFD" opacity="1.000000" stroke="none" 
	d="
M137.344681,39.944740 
	C136.426056,38.864326 135.852112,37.728809 135.135284,36.299583 
	C136.687012,35.241154 138.381622,34.476421 140.076233,33.711689 
	C140.374496,34.129425 140.672760,34.547161 140.971024,34.964897 
	C139.877136,36.606476 138.783249,38.248055 137.344681,39.944740 
z"/>
<path fill="#F6FDFB" opacity="1.000000" stroke="none" 
	d="
M55.624161,31.024649 
	C55.973549,31.745131 55.980232,32.500175 55.976234,33.632763 
	C53.867447,34.320114 51.769344,34.629921 49.331329,34.969955 
	C48.944374,33.931683 48.897331,32.863186 48.916222,31.397842 
	C51.081921,31.020401 53.181686,31.039806 55.624161,31.024649 
z"/>
<path fill="#ECFAFA" opacity="1.000000" stroke="none" 
	d="
M87.435913,30.801760 
	C88.702156,31.616739 89.808678,32.451843 90.950073,33.651299 
	C89.559547,35.298996 88.134132,36.582340 86.353302,37.930229 
	C86.301979,35.919003 86.606071,33.843227 86.955009,31.377295 
	C86.999855,30.987139 87.276184,30.821886 87.435913,30.801760 
z"/>
<path fill="#F6FDFB" opacity="1.000000" stroke="none" 
	d="
M43.678402,21.051456 
	C41.412014,22.508120 38.731762,23.936995 35.708111,25.354160 
	C36.276218,20.753435 40.025578,21.355362 43.678402,21.051456 
z"/>
<path fill="#F6FDFB" opacity="1.000000" stroke="none" 
	d="
M49.261467,21.956467 
	C47.530239,21.700361 46.126755,21.401243 44.402870,21.114010 
	C44.163925,17.759729 46.202488,17.903212 48.296078,19.058666 
	C49.029045,19.463192 49.175121,20.931128 49.261467,21.956467 
z"/>
<path fill="#FDFEFD" opacity="1.000000" stroke="none" 
	d="
M135.621658,43.070080 
	C135.850113,43.057724 136.078583,43.045364 136.649719,43.015129 
	C139.260468,43.227928 142.923935,42.461384 139.306595,46.839119 
	C138.530319,47.004189 138.067581,47.004288 137.196960,46.847778 
	C136.789078,46.691170 136.839325,46.348106 136.877472,46.007473 
	C136.601913,45.112095 136.288193,44.557350 135.864288,43.777794 
	C135.709961,43.392014 135.665802,43.231049 135.621658,43.070080 
z"/>
<path fill="#FDFEFD" opacity="1.000000" stroke="none" 
	d="
M132.993439,32.627457 
	C132.287094,32.995785 131.576035,32.986992 130.268677,32.814999 
	C129.429932,32.142399 129.187500,31.632992 128.964783,30.770044 
	C128.989075,29.944771 128.993622,29.473042 128.998169,29.001312 
	C128.998169,29.001312 129.000000,29.000000 129.001129,28.998934 
	C130.331055,30.082022 131.659866,31.166176 132.993439,32.627457 
z"/>
<path fill="#F6FDFB" opacity="1.000000" stroke="none" 
	d="
M27.066998,25.672810 
	C26.502855,24.674913 26.285776,23.659420 26.068699,22.643925 
	C26.825245,22.582865 27.581791,22.521807 28.338337,22.460747 
	C28.030245,23.525568 27.722155,24.590389 27.066998,25.672810 
z"/>
<path fill="#E0F9FA" opacity="1.000000" stroke="none" 
	d="
M338.380707,56.950188 
	C338.517303,55.485298 338.984955,53.965210 339.701355,52.215321 
	C339.537292,53.622009 339.124512,55.258499 338.380707,56.950188 
z"/>
<path fill="#ECFAFA" opacity="1.000000" stroke="none" 
	d="
M90.999390,114.993454 
	C90.389519,114.960480 89.779640,114.927498 89.169769,114.894516 
	C89.553955,113.966522 89.938133,113.038521 90.660660,112.426613 
	C90.999130,113.492950 90.999260,114.243202 90.999390,114.993454 
z"/>
<path fill="#F6FDFB" opacity="1.000000" stroke="none" 
	d="
M49.327759,26.994667 
	C48.935383,26.553770 48.890736,26.108612 48.909569,25.332418 
	C49.815628,25.299280 50.658211,25.597178 51.500790,25.895077 
	C50.892357,26.260187 50.283924,26.625296 49.327759,26.994667 
z"/>
<path fill="#E4F9FA" opacity="1.000000" stroke="none" 
	d="
M91.320450,114.971779 
	C90.999260,114.243202 90.999130,113.492950 90.996445,112.367233 
	C90.993896,111.991760 91.416389,111.980865 91.627296,111.980057 
	C91.953407,112.694756 92.068611,113.410255 92.229958,114.484352 
	C92.064560,114.878662 91.853027,114.914383 91.320450,114.971779 
z"/>
<path fill="#0E0E0E" opacity="1.000000" stroke="none" 
	d="
M214.998352,88.711494 
	C214.663818,88.915649 214.418686,88.758995 214.122665,88.327553 
	C214.360458,88.230232 214.699127,88.329536 214.998352,88.711494 
z"/>
<path fill="#0E0E0E" opacity="1.000000" stroke="none" 
	d="
M214.299393,104.901390 
	C214.108276,104.574944 214.285873,104.344795 214.753418,104.094009 
	C214.832535,104.315308 214.707458,104.623421 214.299393,104.901390 
z"/>
<path fill="#E4F9FA" opacity="1.000000" stroke="none" 
	d="
M91.712914,108.100723 
	C91.900398,108.171555 91.939583,108.335098 91.926781,108.745415 
	C91.771400,108.725937 91.668015,108.459686 91.712914,108.100723 
z"/>
<path fill="#ECFAFA" opacity="1.000000" stroke="none" 
	d="
M93.448883,117.532433 
	C93.415253,117.476341 93.482506,117.588524 93.448883,117.532433 
z"/>
<path fill="#E3F9FB" opacity="1.000000" stroke="none" 
	d="
M34.386223,59.216843 
	C38.055725,58.632004 39.404949,59.971020 39.050014,63.259186 
	C38.745087,66.084068 38.630287,68.929474 38.402180,72.182793 
	C32.197189,68.685898 30.499336,62.763966 34.386223,59.216843 
z"/>
<path fill="#E0F9FA" opacity="1.000000" stroke="none" 
	d="
M39.026279,39.714390 
	C39.036434,43.078163 39.036434,46.030365 39.036434,49.466228 
	C36.583366,49.466228 34.431850,49.466228 30.594980,49.466228 
	C33.058189,45.130959 35.074429,41.582359 37.090668,38.033760 
	C37.732487,38.456776 38.374306,38.879795 39.026279,39.714390 
z"/>
<path fill="#F4FEFE" opacity="1.000000" stroke="none" 
	d="
M182.461121,53.703911 
	C183.040192,59.779438 181.428955,61.754280 175.999359,61.967949 
	C173.222916,62.077209 170.438644,61.987099 167.246155,61.987099 
	C167.246155,57.952145 167.246155,54.295059 167.246155,50.004829 
	C172.486649,50.971046 178.249496,47.456791 182.461121,53.703911 
z"/>
<path fill="#F4FEFE" opacity="1.000000" stroke="none" 
	d="
M179.981262,36.343891 
	C180.607773,41.355972 178.127258,43.000378 173.953583,42.987057 
	C171.839966,42.980312 169.726318,42.985882 167.220703,42.985882 
	C167.220703,39.591980 167.220703,36.599468 167.220703,33.032566 
	C171.672440,33.852493 176.555344,30.737286 179.981262,36.343891 
z"/>
<path fill="#F8FEFD" opacity="1.000000" stroke="none" 
	d="
M408.278809,61.828445 
	C407.524811,57.512486 407.071686,53.299217 406.951019,49.076454 
	C406.813782,44.272812 406.967773,39.460629 407.018127,34.652397 
	C407.021332,34.348320 407.223541,34.046329 407.464844,33.379585 
	C413.300385,32.706009 419.673706,31.814215 423.526398,37.546764 
	C427.586945,43.588558 427.521698,50.789009 423.749847,56.888988 
	C422.158997,59.461819 417.908691,60.614738 414.652100,61.842335 
	C412.913330,62.497757 410.716553,61.938171 408.278809,61.828445 
z"/>
<path fill="#F3FCFC" opacity="1.000000" stroke="none" 
	d="
M251.673401,43.469955 
	C257.378052,45.470486 259.058105,48.835396 258.026520,55.830368 
	C257.495361,59.432278 255.872726,61.996571 251.752518,62.237057 
	C246.592957,62.538204 243.952148,60.084606 243.314987,54.155815 
	C242.643631,47.908848 245.200974,44.461182 251.673401,43.469955 
z"/>
<path fill="#F2FCFC" opacity="1.000000" stroke="none" 
	d="
M461.096191,44.472023 
	C465.024933,48.613632 466.349487,54.128117 463.721069,58.231888 
	C462.444946,60.224262 459.393982,62.204079 457.187439,62.159595 
	C454.987427,62.115242 451.325531,59.817921 450.982208,58.002090 
	C450.266357,54.216419 450.394531,49.646416 452.027222,46.302635 
	C452.854645,44.608101 457.707672,44.879162 461.096191,44.472023 
z"/>
<path fill="#F3FDFD" opacity="1.000000" stroke="none" 
	d="
M209.726440,61.774826 
	C205.782303,57.855522 204.697372,51.927719 206.754318,47.516289 
	C208.801254,43.126312 215.048798,42.051662 218.444717,45.505405 
	C221.483200,48.595615 221.598541,58.326389 218.055557,60.577278 
	C215.966934,61.904198 212.798767,61.531895 209.726440,61.774826 
z"/>
<path fill="#61BAC6" opacity="1.000000" stroke="none" 
	d="
M128.945053,31.123589 
	C129.187500,31.632992 129.429932,32.142399 129.913147,32.807808 
	C131.826859,36.176151 133.499802,39.388481 135.397202,42.835445 
	C135.665802,43.231049 135.709961,43.392014 135.863708,44.101868 
	C136.261978,45.216541 136.550644,45.782326 136.839325,46.348106 
	C136.839325,46.348106 136.789078,46.691170 136.849884,46.853451 
	C138.332916,58.822033 136.481491,69.944923 129.880219,80.428551 
	C125.162788,85.032196 120.495697,89.234894 116.018326,93.630821 
	C114.640579,94.983521 113.781166,96.864136 112.684410,98.503029 
	C111.825798,98.120811 110.967186,97.738594 110.108574,97.356384 
	C110.108574,72.219040 110.108574,47.081692 110.068405,21.478432 
	C110.203056,20.764565 110.407364,20.543926 110.832825,20.231388 
	C114.401489,21.745111 117.778496,23.378046 121.498703,25.083294 
	C121.841911,25.155605 121.863403,25.128061 122.025887,25.395496 
	C123.093407,26.153706 123.998444,26.644480 124.903488,27.135252 
	C124.903488,27.135250 124.972382,27.025055 124.994408,27.386879 
	C126.325974,28.873665 127.635513,29.998625 128.945053,31.123589 
M119.908180,53.503471 
	C119.908180,59.572006 119.908180,65.640541 119.908180,72.205338 
	C125.735062,71.364746 125.892014,66.424683 126.580200,63.568081 
	C128.832657,54.218250 127.787926,45.130562 119.909241,36.667309 
	C119.909241,42.713425 119.909241,47.610050 119.908180,53.503471 
z"/>
<path fill="#FDFEFE" opacity="1.000000" stroke="none" 
	d="
M107.032120,100.288918 
	C107.557129,100.165527 108.112122,100.335457 108.835159,100.749863 
	C108.356171,100.856972 107.709145,100.719604 107.032120,100.288918 
z"/>
<path fill="#E7E7E7" opacity="1.000000" stroke="none" 
	d="
M181.246414,93.770561 
	C182.422714,101.144524 181.287567,102.519714 174.764282,101.864044 
	C174.764282,98.685783 174.764282,95.473473 174.764282,91.202278 
	C177.110291,92.022713 179.077652,92.710739 181.246414,93.770561 
z"/>
<path fill="#F0F0F0" opacity="1.000000" stroke="none" 
	d="
M279.121979,98.151199 
	C280.503510,97.183075 281.818878,96.643341 283.134216,96.103607 
	C283.531158,97.428368 284.374268,98.827446 284.170258,100.052109 
	C284.031250,100.886765 282.428162,101.477562 281.479736,102.177399 
	C280.671753,100.978127 279.863770,99.778854 279.121979,98.151199 
z"/>
<path fill="#E7E7E7" opacity="1.000000" stroke="none" 
	d="
M232.813934,95.812241 
	C235.486069,98.220787 235.976669,100.535385 232.619949,102.051582 
	C231.930496,102.362991 229.686264,101.041359 229.414062,100.106812 
	C228.761444,97.866127 229.351013,95.758598 232.813934,95.812241 
z"/>
<path fill="#EAEAEA" opacity="1.000000" stroke="none" 
	d="
M294.323425,100.612915 
	C294.828796,98.762398 295.375275,97.211220 296.272491,95.900040 
	C296.415253,95.691444 298.867493,96.408287 298.983612,96.962868 
	C299.295258,98.451065 298.919159,100.083260 298.816162,101.658264 
	C297.370941,101.436035 295.925751,101.213806 294.323425,100.612915 
z"/>
<path fill="#EAEAEA" opacity="1.000000" stroke="none" 
	d="
M243.291473,97.359741 
	C244.984314,96.922394 246.533478,96.872215 248.082642,96.822037 
	C248.111862,98.235222 248.473312,99.765511 248.033417,101.013306 
	C247.805435,101.659988 245.427704,102.316757 245.272781,102.094917 
	C244.360260,100.788185 243.816055,99.224236 243.291473,97.359741 
z"/>
<path fill="#ECFAFA" opacity="1.000000" stroke="none" 
	d="
M128.964783,30.770042 
	C127.635513,29.998625 126.325974,28.873665 124.942276,27.425669 
	C126.044624,27.639002 127.221138,28.175371 128.697906,28.856525 
	C128.993622,29.473042 128.989075,29.944771 128.964783,30.770042 
z"/>
<path fill="#ECFAFA" opacity="1.000000" stroke="none" 
	d="
M124.887794,26.769924 
	C123.998444,26.644480 123.093407,26.153706 122.037430,25.385393 
	C122.881691,25.540100 123.876892,25.972347 124.887794,26.769924 
z"/>
<path fill="#ECFAFA" opacity="1.000000" stroke="none" 
	d="
M136.877472,46.007473 
	C136.550644,45.782326 136.261978,45.216541 135.973877,44.326683 
	C136.288193,44.557350 136.601913,45.112095 136.877472,46.007473 
z"/>
<path fill="#EDFCFC" opacity="1.000000" stroke="none" 
	d="
M119.908707,53.005074 
	C119.909241,47.610050 119.909241,42.713425 119.909241,36.667309 
	C127.787926,45.130562 128.832657,54.218250 126.580200,63.568081 
	C125.892014,66.424683 125.735062,71.364746 119.908180,72.205338 
	C119.908180,65.640541 119.908180,59.572006 119.908707,53.005074 
z"/>
</svg>