<svg version="1.1" id="Layer_1" xmlns="http://www.w3.org/2000/svg" xmlns:xlink="http://www.w3.org/1999/xlink" x="0px" y="0px"
	 width="100%" viewBox="0 0 490 122" enable-background="new 0 0 490 122" xml:space="preserve">
<path fill="#FDFFFE" opacity="1.000000" stroke="none" 
	d="
M86.000000,1.000000 
	C220.946609,1.000000 355.893219,1.000000 490.919922,1.000000 
	C490.919922,41.597054 490.919922,82.194313 490.919922,122.895790 
	C327.666718,122.895790 164.333359,122.895790 1.000011,122.899094 
	C1.000000,93.247368 1.000000,63.592342 1.356022,33.409840 
	C3.139365,30.313564 4.566686,27.744768 5.907483,25.331692 
	C7.845330,26.347530 9.423008,27.174566 11.000360,28.334751 
	C10.998387,29.112139 10.996741,29.556379 10.618494,30.005678 
	C5.348665,31.887072 4.884886,33.333302 8.000324,37.450790 
	C8.052965,47.334702 5.603263,57.124077 11.949241,65.670586 
	C12.121602,65.902718 11.946426,66.377892 12.101681,66.639992 
	C14.429424,70.569641 16.093908,75.303322 21.999367,75.000168 
	C22.000000,75.000000 21.999723,75.001160 22.002102,75.367188 
	C25.009928,79.332062 27.793617,83.157120 31.125219,86.423271 
	C32.544128,87.814301 35.138241,88.644623 37.141060,88.547646 
	C38.232788,88.494789 40.307018,85.612358 39.991211,84.635468 
	C39.412182,82.844330 37.391270,81.519325 35.906227,79.534851 
	C35.879375,61.379848 35.917820,43.689960 36.351109,25.917065 
	C37.164196,23.852531 37.971081,21.859243 37.911552,19.892172 
	C37.817169,16.773212 39.041843,15.624432 42.000790,16.468863 
	C42.000546,28.230394 41.959377,39.523602 42.044254,50.815861 
	C42.057240,52.543869 42.652313,54.267502 43.032795,56.458965 
	C43.050987,62.618793 43.014557,68.312820 42.685879,74.301582 
	C42.337616,79.234169 42.281597,83.872025 42.406059,88.742798 
	C42.555107,89.357140 42.523682,89.738548 42.109341,90.103027 
	C41.606548,91.247185 41.486671,92.408272 41.540535,93.722137 
	C42.189541,94.469147 42.664810,95.063370 43.091766,96.095367 
	C42.321739,102.616096 46.982002,102.979019 51.001663,104.455261 
	C51.005997,106.537384 50.854420,108.204681 51.047462,109.831093 
	C51.522396,113.832466 55.156097,116.126640 59.324444,115.147209 
	C65.449577,119.381630 70.821609,117.360680 71.558395,110.435959 
	C71.848129,107.712868 70.593323,104.825447 69.991165,101.678825 
	C69.973442,100.896790 70.006432,100.448776 70.382645,99.961411 
	C71.177658,98.971832 72.004684,98.016876 71.992744,97.072533 
	C71.975105,95.678215 71.049934,94.292114 71.046921,92.901360 
	C70.999878,71.192261 71.020401,49.482880 71.125137,27.774052 
	C71.129456,26.879988 72.110596,25.990637 73.410332,23.787817 
	C74.838554,27.315729 75.773323,29.624720 76.773239,32.401913 
	C76.787369,40.939259 76.736351,49.008400 76.467422,57.374283 
	C76.395897,60.088444 76.542274,62.505863 76.755035,65.372215 
	C76.777580,68.239494 76.733734,70.657845 76.471146,73.372620 
	C76.398277,76.087257 76.544144,78.505463 76.756187,81.377350 
	C76.778976,84.579521 76.735588,87.328003 76.466492,90.393890 
	C76.406219,94.115524 76.571663,97.519753 76.807816,101.233932 
	C76.905724,101.754082 76.932915,101.964272 76.976234,102.525604 
	C77.715729,103.515114 78.591721,104.817024 79.139313,104.691078 
	C86.022568,103.107887 91.945625,87.857468 88.231842,81.460358 
	C88.048409,81.144386 87.338547,81.134041 86.831406,80.518593 
	C86.633980,71.486946 86.359421,62.918068 86.360153,54.349220 
	C86.360794,46.937862 86.674072,39.526527 87.116074,32.222755 
	C89.248215,34.554134 91.113434,36.777950 92.984413,39.470215 
	C92.992592,52.900803 92.958244,65.863174 93.041443,78.824791 
	C93.052521,80.550499 93.659981,82.272392 94.073578,84.315781 
	C94.162407,85.074936 94.168930,85.514359 93.851700,85.999176 
	C93.320923,86.755455 93.113914,87.466339 92.906906,88.177223 
	C93.616379,87.741493 94.325859,87.305763 95.210922,86.835304 
	C95.386505,86.800575 95.743996,86.781837 96.008972,86.744919 
	C96.415009,86.404694 96.556068,86.101387 96.701874,85.750198 
	C96.706627,85.702324 96.746536,85.614761 97.103409,85.733841 
	C97.953491,85.888367 98.446701,85.923813 99.319130,85.927567 
	C100.425468,84.167816 101.152588,82.439774 102.034210,80.429276 
	C104.012512,78.342194 105.836311,76.537552 107.941971,74.724693 
	C108.419083,74.420296 108.614342,74.124123 108.890091,73.899666 
	C108.970573,73.971382 108.830513,73.807480 109.100189,73.744675 
	C109.511192,73.358459 109.652519,73.035049 109.906097,72.451797 
	C110.599182,71.741455 111.180023,71.290962 112.038193,70.787582 
	C112.502190,70.425079 112.688850,70.115463 112.959557,69.613968 
	C113.172066,69.158119 113.371925,68.969955 114.070999,68.894669 
	C118.809853,68.359612 116.331940,65.014633 116.960541,62.971325 
	C116.972382,63.009007 116.919044,62.950623 117.315689,62.959557 
	C121.464424,60.859024 122.079849,57.942760 119.812523,52.530106 
	C119.921379,51.076382 120.048676,50.021618 120.492615,48.761589 
	C121.178505,45.870197 121.884186,43.174454 121.807716,40.501083 
	C121.749367,38.461380 120.176056,36.445114 120.194977,34.427036 
	C120.241325,29.484461 118.064484,26.078836 112.875191,24.054142 
	C112.896576,23.998205 112.891312,24.117804 112.922501,23.731743 
	C111.931908,22.593781 110.910126,21.841877 109.917816,21.054150 
	C109.947304,21.018326 109.947182,21.111128 109.839050,20.850399 
	C109.405769,20.419163 109.080620,20.248659 108.556534,20.002766 
	C108.106750,19.759007 107.956947,19.525736 107.914963,18.869293 
	C106.613983,17.008217 105.306259,15.505414 104.140671,13.680109 
	C106.326012,8.782065 105.727844,7.764603 100.958832,8.023260 
	C96.305794,8.275627 91.660347,8.667941 86.899864,8.777587 
	C86.585480,8.281832 86.323814,8.086170 86.037918,7.623696 
	C86.048439,5.851946 86.024223,4.425872 86.000000,2.666499 
	C86.000000,1.888799 86.000000,1.444400 86.000000,1.000000 
M447.581512,57.272903 
	C447.420868,57.597706 447.260223,57.922508 446.976074,58.780258 
	C446.625305,59.180260 446.274536,59.580257 445.466614,60.304123 
	C445.361053,60.655315 445.255493,61.006504 445.171906,61.918003 
	C445.082977,62.279942 444.994019,62.641880 444.454834,63.357418 
	C444.369507,63.723167 444.284180,64.088913 444.232849,65.173035 
	C444.118500,66.122948 444.004150,67.072853 443.391815,68.493187 
	C442.778015,70.627159 442.164215,72.761139 441.511444,75.030685 
	C442.729706,75.727104 443.840668,76.362206 445.123993,77.327469 
	C445.123993,77.327469 445.155609,77.698532 445.063568,78.483635 
	C445.784882,79.287704 446.506195,80.091774 447.702667,81.147942 
	C448.173004,81.682281 448.643341,82.216629 449.145630,83.525116 
	C450.471069,83.994720 451.796509,84.464325 453.920319,84.974014 
	C463.995819,86.954521 469.898926,84.244446 471.780823,76.493515 
	C470.114868,75.652954 468.383240,74.779266 466.748413,73.954407 
	C461.520782,79.367188 458.161743,80.224800 454.733215,77.219841 
	C451.473541,74.362869 451.375244,65.880997 455.024841,62.083530 
	C460.081909,56.821587 462.976929,62.178539 466.769226,65.627525 
	C468.473541,63.637611 471.524139,61.449535 471.181793,60.167233 
	C470.607361,58.015461 468.156738,55.927341 465.989136,54.726963 
	C461.119446,52.030243 456.034424,53.229149 450.464691,55.040298 
	C449.994904,55.399693 449.525116,55.759083 449.021088,56.038094 
	C449.021088,56.038094 449.103943,56.065796 448.608917,56.236168 
	C448.425262,56.522667 448.241608,56.809170 448.014893,57.018204 
	C448.014893,57.018204 448.095520,57.054947 447.581512,57.272903 
M438.839264,72.124580 
	C438.858459,70.482803 438.877655,68.841019 438.980957,66.483307 
	C438.656158,65.656693 438.331360,64.830086 437.757965,63.329933 
	C435.874420,60.849251 433.990875,58.368568 431.606689,55.356438 
	C423.448608,51.728954 415.081299,53.145878 410.909149,58.861404 
	C406.691437,64.639259 407.226410,75.492279 412.320892,81.615517 
	C417.418274,86.531715 423.488800,86.233894 430.559082,84.951942 
	C435.668732,84.044914 437.792419,81.664986 437.910217,76.367279 
	C437.910217,76.367279 438.056854,76.009521 438.707520,75.903503 
	C438.756012,74.917694 438.804474,73.931892 438.839264,72.124580 
M289.070251,78.398491 
	C289.070251,72.255020 289.070251,66.111549 289.070251,59.968079 
	C292.599243,67.067581 295.330048,74.170876 297.623138,81.412758 
	C298.576202,84.422577 300.175995,85.090874 303.047363,85.139366 
	C305.907684,85.187660 306.561432,83.744743 307.326324,81.449425 
	C309.753845,74.164589 312.466888,66.974907 315.069580,59.748444 
	C315.419373,59.816132 315.769135,59.883823 316.118896,59.951511 
	C316.118896,68.164536 316.118896,76.377556 316.118896,84.736877 
	C318.859924,84.736877 321.098694,84.736877 323.539185,84.736877 
	C323.539185,71.068314 323.539185,57.708916 323.539185,44.405300 
	C313.388275,43.081150 313.388702,43.081303 310.342407,51.783772 
	C309.298584,54.765602 308.212738,57.733414 307.216248,60.730957 
	C305.892090,64.714195 304.636566,68.720261 303.351562,72.716530 
	C299.379150,64.191872 296.474762,55.892590 293.713959,47.545830 
	C292.881683,45.029655 291.707428,43.576012 288.770691,43.911064 
	C286.509216,44.169075 284.194763,43.962482 281.597443,43.962482 
	C281.597443,57.855415 281.597443,71.226730 281.597443,84.648499 
	C284.195435,84.648499 286.422058,84.648499 289.070587,84.648499 
	C289.070587,82.633408 289.070587,80.998070 289.070251,78.398491 
M171.023239,76.438408 
	C172.852676,69.536537 169.370605,65.141174 163.673294,62.028030 
	C170.687119,54.079803 169.577393,45.876766 161.144775,44.537457 
	C154.095444,43.417847 146.726974,44.307705 139.522583,44.307705 
	C139.522583,58.070065 139.522583,71.412010 139.522583,84.992882 
	C146.772614,84.992882 153.591980,85.254364 160.379959,84.905525 
	C165.314377,84.651955 169.293198,82.359459 171.023239,76.438408 
M367.084229,55.521389 
	C367.084229,65.248566 367.084229,74.975739 367.084229,84.950027 
	C374.027710,84.950027 380.203644,85.420723 386.275299,84.826447 
	C393.279236,84.140930 398.923981,80.831268 401.208313,73.539879 
	C403.092346,67.526070 403.268982,61.529282 401.258820,55.449619 
	C399.486176,50.088253 395.960327,46.139896 390.616119,45.290607 
	C383.050171,44.088230 375.297455,44.061031 367.081177,43.494061 
	C367.081177,47.952156 367.081177,51.241062 367.084229,55.521389 
M249.917847,58.501274 
	C249.917847,67.240891 249.917847,75.980499 249.917847,84.665497 
	C253.014786,84.665497 255.253952,84.665497 258.071869,84.665497 
	C258.071869,80.789276 258.071869,77.274506 258.071869,73.294052 
	C264.092255,77.669220 265.428955,88.118126 276.247437,84.261009 
	C272.457306,78.970345 268.830322,73.907417 265.205292,68.847214 
	C268.567383,63.975082 271.786377,59.310299 274.970276,54.696407 
	C264.948608,50.872421 263.397400,60.551929 257.648865,65.477966 
	C257.648865,56.524086 257.648865,48.932720 257.648865,41.300522 
	C254.907867,41.300522 252.666534,41.300522 249.917175,41.300522 
	C249.917175,46.923016 249.917175,52.212448 249.917847,58.501274 
M347.054932,72.194046 
	C346.588257,72.943001 346.121582,73.691956 345.236420,75.112480 
	C343.379669,69.518181 341.834076,64.620964 340.128143,59.780251 
	C337.827332,53.251480 337.678528,53.218346 330.148285,54.526138 
	C330.361206,55.476768 330.464233,56.456696 330.798859,57.349865 
	C333.945404,65.749069 337.119293,74.138100 340.310730,82.520386 
	C342.275085,87.679787 339.927948,91.048271 334.402618,90.894958 
	C333.286591,90.863998 332.174957,90.674332 330.679321,90.517868 
	C330.230225,92.604172 329.828979,94.468048 329.435486,96.296135 
	C339.734589,99.306908 345.211182,96.778976 348.896759,87.607040 
	C350.569763,83.443573 352.205170,79.263817 353.779236,75.062080 
	C356.315308,68.292450 358.786469,61.498497 361.285675,54.713123 
	C355.477783,52.707150 352.456970,54.240086 351.185913,59.670555 
	C350.243195,63.698364 348.631104,67.569519 347.054932,72.194046 
M241.173035,60.645977 
	C236.113556,53.383465 227.667358,51.200077 219.790771,55.118565 
	C213.867447,58.065338 210.730652,67.370956 213.012207,75.227829 
	C214.957336,81.926163 220.679779,85.936348 228.053894,85.768745 
	C235.291855,85.604225 241.333130,81.675430 242.380310,75.050659 
	C243.076187,70.648361 241.836441,65.940102 241.173035,60.645977 
M201.882782,82.488991 
	C208.158325,76.918175 207.943909,70.006264 205.939423,62.741482 
	C204.158813,56.287968 199.174988,53.836433 193.196762,53.370003 
	C187.234390,52.904804 181.894104,54.758266 178.690659,60.265995 
	C174.860245,66.851669 175.978943,76.964111 180.817413,81.788506 
	C185.329025,86.287010 194.187500,86.792877 201.882782,82.488991 
M3.760519,48.394592 
	C3.576842,49.745777 3.393165,51.096962 3.209488,52.448147 
	C3.926467,52.413792 4.643446,52.379436 5.360426,52.345081 
	C5.059631,50.962872 4.758836,49.580662 3.760519,48.394592 
z"/>
<path fill="#FEFEFE" opacity="1.000000" stroke="none" 
	d="
M11.000687,28.001602 
	C9.423008,27.174566 7.845330,26.347530 5.907483,25.331692 
	C4.566686,27.744768 3.139365,30.313564 1.356022,32.941181 
	C1.000000,22.398575 1.000000,11.797151 1.000000,1.000000 
	C14.020241,1.000000 27.041462,1.000000 40.531387,1.405819 
	C42.335060,4.210659 43.670025,6.609681 44.998810,9.262496 
	C44.976116,9.853111 44.959606,10.189935 44.665955,10.653986 
	C43.998684,10.893937 43.608551,11.006660 42.916451,11.079005 
	C42.412174,11.027527 42.209866,11.016426 41.643200,11.041280 
	C39.411278,11.764865 37.543713,12.452495 35.489655,13.088893 
	C35.303158,13.037661 35.007690,12.788016 34.995930,12.431608 
	C33.956680,11.614515 32.846741,10.637463 31.916529,10.785995 
	C28.578594,11.318983 25.301439,12.232624 21.824381,12.676432 
	C18.724695,10.424333 16.354942,9.703901 14.816726,14.132236 
	C14.397491,15.339160 12.097570,16.071550 10.521749,16.628139 
	C9.635922,16.941017 8.465953,16.449427 7.423995,16.320261 
	C7.133452,16.727755 6.842910,17.135250 6.552369,17.542746 
	C8.368013,19.361849 10.183659,21.180952 11.999664,23.333345 
	C12.000237,24.111027 12.000451,24.555416 11.738205,25.205511 
	C11.317694,26.274338 11.159641,27.137459 11.000795,28.000290 
	C11.000000,28.000000 11.000687,28.001602 11.000687,28.001602 
z"/>
<path fill="#FEFEFE" opacity="1.000000" stroke="none" 
	d="
M85.531342,1.000000 
	C86.000000,1.444400 86.000000,1.888799 85.657524,2.815620 
	C80.700874,4.801190 76.086700,6.304339 71.410637,7.827650 
	C71.659767,9.310245 71.902603,10.755391 72.123734,12.200452 
	C72.102028,12.200366 72.131554,12.173817 71.719856,12.112593 
	C70.206818,12.037890 69.105469,12.024411 67.735291,11.722800 
	C65.307182,11.291730 63.147907,11.148793 60.651123,10.856848 
	C58.208801,10.140538 56.103989,9.573236 53.942894,8.657583 
	C52.553631,7.517275 51.020012,6.932494 49.936409,5.883046 
	C48.445915,4.439526 47.295895,2.644453 46.000000,1.000000 
	C59.020893,1.000000 72.041786,1.000000 85.531342,1.000000 
z"/>
<path fill="#FCFEFD" opacity="1.000000" stroke="none" 
	d="
M45.583336,1.000000 
	C47.295895,2.644453 48.445915,4.439526 49.936409,5.883046 
	C51.020012,6.932494 52.553631,7.517275 53.493095,8.656996 
	C50.401382,9.006075 47.703186,9.007389 45.004990,9.008703 
	C43.670025,6.609681 42.335060,4.210659 41.000046,1.405819 
	C42.388889,1.000000 43.777779,1.000000 45.583336,1.000000 
z"/>
<path fill="#63BBC7" opacity="1.000000" stroke="none" 
	d="
M43.218422,11.119383 
	C43.608551,11.006660 43.998684,10.893937 45.096500,10.778612 
	C50.834610,11.554951 55.865036,12.333893 60.905014,13.099068 
	C60.914566,13.085299 60.916031,13.077481 61.103157,13.336636 
	C62.871815,14.084316 64.453346,14.572842 66.325043,15.043891 
	C67.099220,14.733245 67.583214,14.440076 68.400078,14.116423 
	C69.865814,13.448565 70.998680,12.811191 72.131554,12.173817 
	C72.131554,12.173817 72.102028,12.200366 72.437546,12.216740 
	C73.184906,12.145399 73.596741,12.057685 74.431076,11.999305 
	C78.496315,11.622437 82.139053,11.216237 85.675064,10.821938 
	C86.179405,13.893415 86.521080,15.974235 86.794098,18.457081 
	C86.766678,23.277800 86.807915,27.696491 86.849152,32.115185 
	C86.674072,39.526527 86.360794,46.937862 86.360153,54.349220 
	C86.359421,62.918068 86.633980,71.486946 86.619125,80.851082 
	C86.400276,84.305367 86.207100,86.971138 86.331436,89.622017 
	C86.617546,95.721947 83.179886,100.421608 76.960114,102.174461 
	C76.932915,101.964272 76.905724,101.754082 76.891312,100.790573 
	C76.833466,96.717003 76.762833,93.396744 76.692200,90.076485 
	C76.735588,87.328003 76.778976,84.579521 76.848267,80.950089 
	C76.812744,77.738159 76.751312,75.407173 76.689888,73.076187 
	C76.733734,70.657845 76.777580,68.239494 76.847122,64.945023 
	C76.810326,61.738449 76.747833,59.407993 76.685333,57.077541 
	C76.736351,49.008400 76.787369,40.939259 76.861298,31.957951 
	C76.884209,27.823761 76.884209,24.601734 76.884209,20.860600 
	C73.104546,22.094494 69.827820,22.302895 69.847061,26.741936 
	C69.952919,51.161369 69.983215,75.581123 70.039429,100.000771 
	C70.006432,100.448776 69.973442,100.896790 69.921005,102.117699 
	C69.887756,104.720634 70.437981,106.814972 69.732368,108.320847 
	C68.576790,110.786995 66.743057,114.600990 64.947220,114.744652 
	C61.517918,115.018990 59.894543,111.768181 60.076084,108.119659 
	C60.183437,105.962082 60.085972,103.794487 60.086689,101.631401 
	C60.094685,77.504608 59.977306,53.376598 60.209576,29.251953 
	C60.261871,23.820292 57.694866,21.929131 52.982899,21.213345 
	C52.679115,21.867764 52.308147,22.294125 52.307957,22.720652 
	C52.296734,47.509926 52.309696,72.299232 52.356777,97.088455 
	C52.358639,98.068443 52.713863,99.047760 52.814453,100.353348 
	C52.170109,101.354660 51.615753,102.030006 50.743484,102.499481 
	C47.997078,100.081612 45.568581,97.869606 43.140083,95.657600 
	C42.664810,95.063370 42.189541,94.469147 41.876755,93.508865 
	C42.190247,92.135193 42.341251,91.127571 42.492256,90.119957 
	C42.523682,89.738548 42.555107,89.357140 42.706623,88.394669 
	C42.877182,83.211349 42.927654,78.609093 42.978127,74.006844 
	C43.014557,68.312820 43.050987,62.618793 43.104515,55.995468 
	C43.085987,42.045601 43.050358,29.025032 43.069130,15.606095 
	C43.090271,14.137753 43.057007,13.067779 43.097614,11.783783 
	C43.171482,11.569762 43.218422,11.119383 43.218422,11.119383 
z"/>
<path fill="#62BCC7" opacity="1.000000" stroke="none" 
	d="
M35.007690,12.788016 
	C35.007690,12.788016 35.303158,13.037661 35.508858,13.539600 
	C35.795132,18.027716 35.875698,22.013891 35.956264,26.000069 
	C35.917820,43.689960 35.879375,61.379848 35.838455,79.943214 
	C35.743034,82.699989 35.650085,84.583282 35.511295,87.395531 
	C30.459684,82.761612 26.229702,78.881386 21.999722,75.001160 
	C21.999723,75.001160 22.000000,75.000000 21.847706,74.703751 
	C14.586242,66.246971 7.367468,58.134541 11.350332,45.921478 
	C11.505491,45.445702 10.859492,44.761356 10.800523,44.153465 
	C10.598077,42.066536 9.907718,39.806782 10.441487,37.904152 
	C14.029387,25.115030 22.047089,16.491898 35.007690,12.788016 
M20.412363,55.997059 
	C21.803015,58.596859 23.193665,61.196659 24.584316,63.796459 
	C25.028240,63.664856 25.472166,63.533249 25.916090,63.401642 
	C25.916090,59.008667 25.916090,54.615692 25.916090,50.276306 
	C19.166983,49.714275 19.024538,49.854965 20.412363,55.997059 
M23.408123,31.092930 
	C21.913465,34.085358 20.418808,37.077782 18.651632,40.615814 
	C21.757994,40.615814 23.669762,40.615814 25.712955,40.615814 
	C25.712955,36.549690 25.712955,32.818119 25.712955,28.493769 
	C24.747431,29.570616 24.303194,30.066074 23.408123,31.092930 
z"/>
<path fill="#5FBBC6" opacity="1.000000" stroke="none" 
	d="
M289.070435,78.880615 
	C289.070587,80.998070 289.070587,82.633408 289.070587,84.648499 
	C286.422058,84.648499 284.195435,84.648499 281.597443,84.648499 
	C281.597443,71.226730 281.597443,57.855415 281.597443,43.962482 
	C284.194763,43.962482 286.509216,44.169075 288.770691,43.911064 
	C291.707428,43.576012 292.881683,45.029655 293.713959,47.545830 
	C296.474762,55.892590 299.379150,64.191872 303.351562,72.716530 
	C304.636566,68.720261 305.892090,64.714195 307.216248,60.730957 
	C308.212738,57.733414 309.298584,54.765602 310.342407,51.783772 
	C313.388702,43.081303 313.388275,43.081150 323.539185,44.405300 
	C323.539185,57.708916 323.539185,71.068314 323.539185,84.736877 
	C321.098694,84.736877 318.859924,84.736877 316.118896,84.736877 
	C316.118896,76.377556 316.118896,68.164536 316.118896,59.951511 
	C315.769135,59.883823 315.419373,59.816132 315.069580,59.748444 
	C312.466888,66.974907 309.753845,74.164589 307.326324,81.449425 
	C306.561432,83.744743 305.907684,85.187660 303.047363,85.139366 
	C300.175995,85.090874 298.576202,84.422577 297.623138,81.412758 
	C295.330048,74.170876 292.599243,67.067581 289.070251,59.968079 
	C289.070251,66.111549 289.070251,72.255020 289.070435,78.880615 
z"/>
<path fill="#61BAC5" opacity="1.000000" stroke="none" 
	d="
M95.743996,86.781837 
	C95.743996,86.781837 95.386505,86.800575 95.118668,86.638763 
	C94.689857,86.219749 94.464729,86.045364 94.175461,85.953789 
	C94.168930,85.514359 94.162407,85.074936 94.131592,83.850433 
	C94.010559,60.057888 93.913826,37.050419 93.956871,13.767129 
	C94.396774,13.213741 94.696892,12.936179 95.334084,12.791899 
	C96.381157,13.028871 97.091171,13.132562 97.831543,13.230766 
	C97.861916,13.225280 97.863174,13.163570 98.050591,13.445724 
	C101.461403,15.561108 104.684807,17.394337 107.908203,19.227566 
	C107.956947,19.525736 108.106750,19.759007 108.678696,20.253880 
	C109.315582,20.757299 109.631386,20.934214 109.947182,21.111128 
	C109.947182,21.111128 109.947304,21.018326 110.021820,21.348640 
	C111.027992,22.491903 111.959656,23.304852 112.891312,24.117802 
	C112.891312,24.117804 112.896576,23.998205 112.925735,24.403643 
	C117.658607,32.175159 120.574562,40.075626 120.175980,48.966854 
	C120.048676,50.021618 119.921379,51.076382 119.598312,52.822842 
	C118.574715,56.659897 117.746880,59.805260 116.919044,62.950623 
	C116.919044,62.950623 116.972382,63.009007 116.687729,63.175159 
	C115.483109,65.180077 114.563133,67.018845 113.643158,68.857605 
	C113.371925,68.969955 113.172066,69.158119 112.721725,69.724487 
	C112.186859,70.298073 111.973862,70.569267 111.760857,70.840462 
	C111.180023,71.290962 110.599182,71.741455 109.685074,72.576622 
	C109.178032,73.243355 109.004272,73.525421 108.830513,73.807480 
	C108.830513,73.807480 108.970573,73.971382 108.652283,73.982147 
	C108.109360,74.239578 107.884735,74.486244 107.660110,74.732918 
	C105.836311,76.537552 104.012512,78.342194 101.734406,80.538750 
	C100.542740,81.664551 99.805382,82.398438 98.781021,83.224228 
	C97.911530,84.082336 97.329033,84.848549 96.746536,85.614761 
	C96.746536,85.614761 96.706627,85.702324 96.486580,85.848122 
	C96.023239,86.210709 95.849060,86.473351 95.743996,86.781837 
M103.061333,57.346310 
	C103.061333,59.731441 103.061333,62.116570 103.061333,65.209679 
	C112.821747,55.223953 113.179939,36.446705 103.048912,28.941044 
	C103.048912,38.173939 103.048912,47.282726 103.061333,57.346310 
z"/>
<path fill="#5EBBC7" opacity="1.000000" stroke="none" 
	d="
M170.958496,76.817230 
	C169.293198,82.359459 165.314377,84.651955 160.379959,84.905525 
	C153.591980,85.254364 146.772614,84.992882 139.522583,84.992882 
	C139.522583,71.412010 139.522583,58.070065 139.522583,44.307705 
	C146.726974,44.307705 154.095444,43.417847 161.144775,44.537457 
	C169.577393,45.876766 170.687119,54.079803 163.673294,62.028030 
	C169.370605,65.141174 172.852676,69.536537 170.958496,76.817230 
M147.614212,77.700859 
	C151.306946,77.836037 155.008636,78.191223 158.689743,78.041222 
	C162.016815,77.905655 163.659637,75.307655 162.817719,72.525490 
	C162.184265,70.432220 160.047821,67.844955 158.085785,67.317429 
	C154.871155,66.453133 151.254654,67.083534 147.312210,67.083534 
	C147.312210,70.661102 147.312210,73.772530 147.614212,77.700859 
M157.261093,59.109673 
	C158.365097,57.503063 160.566055,55.660465 160.284546,54.351921 
	C159.961166,52.848736 157.542786,51.638546 155.830963,50.655285 
	C154.912674,50.127834 153.565582,50.359051 152.415161,50.221397 
	C148.759293,49.783962 147.043747,50.844570 147.022369,55.073551 
	C147.000122,59.470486 149.041046,60.170673 152.533493,59.788643 
	C153.850647,59.644566 155.160995,59.438297 157.261093,59.109673 
z"/>
<path fill="#5FBCC6" opacity="1.000000" stroke="none" 
	d="
M367.082703,55.025681 
	C367.081177,51.241062 367.081177,47.952156 367.081177,43.494061 
	C375.297455,44.061031 383.050171,44.088230 390.616119,45.290607 
	C395.960327,46.139896 399.486176,50.088253 401.258820,55.449619 
	C403.268982,61.529282 403.092346,67.526070 401.208313,73.539879 
	C398.923981,80.831268 393.279236,84.140930 386.275299,84.826447 
	C380.203644,85.420723 374.027710,84.950027 367.084229,84.950027 
	C367.084229,74.975739 367.084229,65.248566 367.082703,55.025681 
M392.539398,72.736198 
	C392.937012,71.466347 393.467987,70.221512 393.711548,68.922768 
	C396.003876,56.700363 390.861084,50.190907 379.089233,50.241104 
	C376.796204,50.250885 375.187958,50.620609 375.213959,53.444366 
	C375.281464,60.772575 375.139282,68.104271 375.329010,75.428146 
	C375.357635,76.532524 376.737091,78.551834 377.458252,78.536865 
	C382.851410,78.424911 388.657806,79.083603 392.539398,72.736198 
z"/>
<path fill="#62BCC6" opacity="1.000000" stroke="none" 
	d="
M249.917511,58.001579 
	C249.917175,52.212448 249.917175,46.923016 249.917175,41.300522 
	C252.666534,41.300522 254.907867,41.300522 257.648865,41.300522 
	C257.648865,48.932720 257.648865,56.524086 257.648865,65.477966 
	C263.397400,60.551929 264.948608,50.872421 274.970276,54.696407 
	C271.786377,59.310299 268.567383,63.975082 265.205292,68.847214 
	C268.830322,73.907417 272.457306,78.970345 276.247437,84.261009 
	C265.428955,88.118126 264.092255,77.669220 258.071869,73.294052 
	C258.071869,77.274506 258.071869,80.789276 258.071869,84.665497 
	C255.253952,84.665497 253.014786,84.665497 249.917847,84.665497 
	C249.917847,75.980499 249.917847,67.240891 249.917511,58.001579 
z"/>
<path fill="#61BCC6" opacity="1.000000" stroke="none" 
	d="
M347.186035,71.852249 
	C348.631104,67.569519 350.243195,63.698364 351.185913,59.670555 
	C352.456970,54.240086 355.477783,52.707150 361.285675,54.713123 
	C358.786469,61.498497 356.315308,68.292450 353.779236,75.062080 
	C352.205170,79.263817 350.569763,83.443573 348.896759,87.607040 
	C345.211182,96.778976 339.734589,99.306908 329.435486,96.296135 
	C329.828979,94.468048 330.230225,92.604172 330.679321,90.517868 
	C332.174957,90.674332 333.286591,90.863998 334.402618,90.894958 
	C339.927948,91.048271 342.275085,87.679787 340.310730,82.520386 
	C337.119293,74.138100 333.945404,65.749069 330.798859,57.349865 
	C330.464233,56.456696 330.361206,55.476768 330.148285,54.526138 
	C337.678528,53.218346 337.827332,53.251480 340.128143,59.780251 
	C341.834076,64.620964 343.379669,69.518181 345.236420,75.112480 
	C346.121582,73.691956 346.588257,72.943001 347.186035,71.852249 
z"/>
<path fill="#60BCC7" opacity="1.000000" stroke="none" 
	d="
M241.318085,61.007385 
	C241.836441,65.940102 243.076187,70.648361 242.380310,75.050659 
	C241.333130,81.675430 235.291855,85.604225 228.053894,85.768745 
	C220.679779,85.936348 214.957336,81.926163 213.012207,75.227829 
	C210.730652,67.370956 213.867447,58.065338 219.790771,55.118565 
	C227.667358,51.200077 236.113556,53.383465 241.318085,61.007385 
M229.828369,60.354076 
	C225.340622,59.036987 222.936905,61.307178 221.470673,65.202812 
	C219.826279,69.571754 220.893036,75.750023 223.644012,77.753868 
	C227.197784,80.342491 232.475632,78.849884 233.948944,74.638123 
	C235.804230,69.334366 235.103989,64.508743 229.828369,60.354076 
z"/>
<path fill="#60BCC6" opacity="1.000000" stroke="none" 
	d="
M201.591721,82.723610 
	C194.187500,86.792877 185.329025,86.287010 180.817413,81.788506 
	C175.978943,76.964111 174.860245,66.851669 178.690659,60.265995 
	C181.894104,54.758266 187.234390,52.904804 193.196762,53.370003 
	C199.174988,53.836433 204.158813,56.287968 205.939423,62.741482 
	C207.943909,70.006264 208.158325,76.918175 201.591721,82.723610 
M194.555603,60.663956 
	C190.012283,58.805164 187.096268,60.750820 185.736771,64.964180 
	C185.001678,67.242371 184.956711,69.837845 185.060242,72.270615 
	C185.230316,76.266556 187.342224,78.825867 191.548874,78.922386 
	C195.639893,79.016258 198.031555,76.714638 198.756851,72.815453 
	C199.589493,68.339279 198.623840,64.295448 194.555603,60.663956 
z"/>
<path fill="#62BCC6" opacity="1.000000" stroke="none" 
	d="
M445.923767,59.980259 
	C446.274536,59.580257 446.625305,59.180260 447.273743,58.379818 
	C447.746094,57.671238 447.920807,57.363094 448.095520,57.054947 
	C448.095520,57.054947 448.014893,57.018204 448.283875,56.971020 
	C448.736572,56.637825 448.920258,56.351814 449.103943,56.065800 
	C449.103943,56.065796 449.021088,56.038094 449.337341,56.041824 
	C450.135773,55.713707 450.617981,55.381855 451.100189,55.050011 
	C456.034424,53.229149 461.119446,52.030243 465.989136,54.726963 
	C468.156738,55.927341 470.607361,58.015461 471.181793,60.167233 
	C471.524139,61.449535 468.473541,63.637611 466.769226,65.627525 
	C462.976929,62.178539 460.081909,56.821587 455.024841,62.083530 
	C451.375244,65.880997 451.473541,74.362869 454.733215,77.219841 
	C458.161743,80.224800 461.520782,79.367188 466.748413,73.954407 
	C468.383240,74.779266 470.114868,75.652954 471.780823,76.493515 
	C469.898926,84.244446 463.995819,86.954521 453.311493,84.698807 
	C451.506348,83.866058 450.309998,83.308525 449.113678,82.750977 
	C448.643341,82.216629 448.173004,81.682281 447.376526,80.712723 
	C446.418793,79.417839 445.787201,78.558182 445.155609,77.698532 
	C445.155609,77.698532 445.123993,77.327469 445.038788,76.757126 
	C444.598999,73.465446 444.244415,70.744102 443.889832,68.022766 
	C444.004150,67.072853 444.118500,66.122948 444.430786,64.625427 
	C444.720825,63.719822 444.812927,63.361820 444.905060,63.003815 
	C444.994019,62.641880 445.082977,62.279942 445.371918,61.459618 
	C445.689209,60.660908 445.806488,60.320583 445.923767,59.980259 
z"/>
<path fill="#E9FBFC" opacity="1.000000" stroke="none" 
	d="
M52.904442,100.027390 
	C52.713863,99.047760 52.358639,98.068443 52.356777,97.088455 
	C52.309696,72.299232 52.296734,47.509926 52.307957,22.720652 
	C52.308147,22.294125 52.679115,21.867764 52.982899,21.213345 
	C57.694866,21.929131 60.261871,23.820292 60.209576,29.251953 
	C59.977306,53.376598 60.094685,77.504608 60.086689,101.631401 
	C60.085972,103.794487 60.183437,105.962082 60.076084,108.119659 
	C59.894543,111.768181 61.517918,115.018990 64.947220,114.744652 
	C66.743057,114.600990 68.576790,110.786995 69.732368,108.320847 
	C70.437981,106.814972 69.887756,104.720634 69.971725,102.451729 
	C70.593323,104.825447 71.848129,107.712868 71.558395,110.435959 
	C70.821609,117.360680 65.449577,119.381630 59.321304,114.704437 
	C58.453251,84.902687 57.899551,55.700226 57.342350,26.313004 
	C53.282578,25.617825 54.024460,28.519535 54.020985,30.594227 
	C53.985374,51.867119 54.027103,73.140198 53.952530,94.412880 
	C53.945961,96.285583 53.269669,98.155945 52.904442,100.027390 
z"/>
<path fill="#FDFDFB" opacity="1.000000" stroke="none" 
	d="
M52.814453,100.353348 
	C53.269669,98.155945 53.945961,96.285583 53.952530,94.412880 
	C54.027103,73.140198 53.985374,51.867119 54.020985,30.594227 
	C54.024460,28.519535 53.282578,25.617825 57.342350,26.313004 
	C57.899551,55.700226 58.453251,84.902687 59.010086,114.547928 
	C55.156097,116.126640 51.522396,113.832466 51.047462,109.831093 
	C50.854420,108.204681 51.005997,106.537384 51.007732,104.233589 
	C51.027306,103.287285 51.042873,102.996239 51.061398,102.705353 
	C51.615753,102.030006 52.170109,101.354660 52.814453,100.353348 
z"/>
<path fill="#F6FDFC" opacity="1.000000" stroke="none" 
	d="
M34.995930,12.431608 
	C22.047089,16.491898 14.029387,25.115030 10.441487,37.904152 
	C9.907718,39.806782 10.598077,42.066536 10.800523,44.153465 
	C10.859492,44.761356 11.505491,45.445702 11.350332,45.921478 
	C7.367468,58.134541 14.586242,66.246971 21.847073,74.703918 
	C16.093908,75.303322 14.429424,70.569641 12.101681,66.639992 
	C11.946426,66.377892 12.121602,65.902718 11.949241,65.670586 
	C5.603263,57.124077 8.052965,47.334702 8.267996,37.234268 
	C9.355508,34.378590 10.175302,32.189606 10.995095,30.000618 
	C10.996741,29.556379 10.998387,29.112139 11.000360,28.334751 
	C11.000687,28.001602 11.000000,28.000000 11.325096,27.955723 
	C11.767016,26.940897 11.883841,25.970352 12.000666,24.999805 
	C12.000451,24.555416 12.000237,24.111027 12.209822,23.073013 
	C15.999412,23.487226 17.992918,21.115023 19.647224,18.707485 
	C20.786530,17.049442 21.240847,14.920723 22.001308,13.002364 
	C25.301439,12.232624 28.578594,11.318983 31.916529,10.785995 
	C32.846741,10.637463 33.956680,11.614515 34.995930,12.431608 
z"/>
<path fill="#FCFEFD" opacity="1.000000" stroke="none" 
	d="
M94.997017,12.658617 
	C94.696892,12.936179 94.396774,13.213741 93.638000,13.974682 
	C92.786743,16.140894 92.024406,17.833124 92.066902,19.504900 
	C92.232193,26.007380 92.652954,32.503365 92.978653,39.001766 
	C91.113434,36.777950 89.248215,34.554134 87.116074,32.222755 
	C86.807915,27.696491 86.766678,23.277800 87.100624,18.208323 
	C87.321060,14.704632 87.166313,11.851724 87.011566,8.998816 
	C91.660347,8.667941 96.305794,8.275627 100.958832,8.023260 
	C105.727844,7.764603 106.326012,8.782065 103.784622,13.524006 
	C101.478683,13.514792 99.670929,13.339182 97.863174,13.163570 
	C97.863174,13.163570 97.861916,13.225280 97.877480,12.900091 
	C97.411789,11.912857 96.930542,11.250812 96.449295,10.588766 
	C95.965202,11.278716 95.481110,11.968667 94.997017,12.658617 
z"/>
<path fill="#E9FBFC" opacity="1.000000" stroke="none" 
	d="
M70.382645,99.961411 
	C69.983215,75.581123 69.952919,51.161369 69.847061,26.741936 
	C69.827820,22.302895 73.104546,22.094494 76.884209,20.860600 
	C76.884209,24.601734 76.884209,27.823761 76.796143,31.489746 
	C75.773323,29.624720 74.838554,27.315729 73.410332,23.787817 
	C72.110596,25.990637 71.129456,26.879988 71.125137,27.774052 
	C71.020401,49.482880 70.999878,71.192261 71.046921,92.901360 
	C71.049934,94.292114 71.975105,95.678215 71.992744,97.072533 
	C72.004684,98.016876 71.177658,98.971832 70.382645,99.961411 
z"/>
<path fill="#70BDC6" opacity="1.000000" stroke="none" 
	d="
M412.000366,81.000145 
	C407.226410,75.492279 406.691437,64.639259 410.909149,58.861404 
	C415.081299,53.145878 423.448608,51.728954 431.802673,55.679222 
	C431.998627,56.002003 431.890381,56.115761 431.480438,56.075935 
	C429.777954,55.761421 428.496796,55.402779 427.190979,55.225929 
	C419.797760,54.224651 409.797028,57.408665 410.089294,68.232559 
	C410.203186,72.449974 411.437775,76.637115 412.121490,80.878532 
	C412.081055,80.919014 412.000366,81.000145 412.000366,81.000145 
z"/>
<path fill="#F1FDFC" opacity="1.000000" stroke="none" 
	d="
M92.984421,39.470215 
	C92.652954,32.503365 92.232193,26.007380 92.066902,19.504900 
	C92.024406,17.833124 92.786743,16.140894 93.498222,14.250507 
	C93.913826,37.050419 94.010559,60.057888 94.049278,83.530701 
	C93.659981,82.272392 93.052521,80.550499 93.041443,78.824791 
	C92.958244,65.863174 92.992592,52.900803 92.984421,39.470215 
z"/>
<path fill="#E9FBFC" opacity="1.000000" stroke="none" 
	d="
M76.976234,102.525604 
	C83.179886,100.421608 86.617546,95.721947 86.331436,89.622017 
	C86.207100,86.971138 86.400276,84.305367 86.661522,81.313866 
	C87.338547,81.134041 88.048409,81.144386 88.231842,81.460358 
	C91.945625,87.857468 86.022568,103.107887 79.139313,104.691078 
	C78.591721,104.817024 77.715729,103.515114 76.976234,102.525604 
z"/>
<path fill="#F6FDFC" opacity="1.000000" stroke="none" 
	d="
M22.002102,75.367188 
	C26.229702,78.881386 30.459684,82.761612 35.511295,87.395531 
	C35.650085,84.583282 35.743034,82.699989 35.903755,80.408325 
	C37.391270,81.519325 39.412182,82.844330 39.991211,84.635468 
	C40.307018,85.612358 38.232788,88.494789 37.141060,88.547646 
	C35.138241,88.644623 32.544128,87.814301 31.125219,86.423271 
	C27.793617,83.157120 25.009928,79.332062 22.002102,75.367188 
z"/>
<path fill="#FCFEFD" opacity="1.000000" stroke="none" 
	d="
M74.008575,11.969971 
	C73.596741,12.057685 73.184906,12.145399 72.459259,12.216825 
	C71.902603,10.755391 71.659767,9.310245 71.410637,7.827650 
	C76.086700,6.304339 80.700874,4.801190 85.657532,3.148920 
	C86.024223,4.425872 86.048439,5.851946 85.692871,7.779737 
	C81.544914,9.510960 77.776749,10.740465 74.008575,11.969971 
z"/>
<path fill="#F1FDFC" opacity="1.000000" stroke="none" 
	d="
M120.492615,48.761589 
	C120.574562,40.075626 117.658607,32.175159 112.904343,24.459579 
	C118.064484,26.078836 120.241325,29.484461 120.194977,34.427036 
	C120.176056,36.445114 121.749367,38.461380 121.807716,40.501083 
	C121.884186,43.174454 121.178505,45.870197 120.492615,48.761589 
z"/>
<path fill="#F6FDFC" opacity="1.000000" stroke="none" 
	d="
M36.351109,25.917065 
	C35.875698,22.013891 35.795132,18.027716 35.695354,13.590832 
	C37.543713,12.452495 39.411278,11.764865 41.752274,11.261771 
	C42.427860,11.722525 42.693874,11.906357 43.023746,11.997804 
	C43.057007,13.067779 43.090271,14.137753 42.815681,15.604206 
	C42.338909,16.000532 42.169987,16.000380 42.001060,16.000229 
	C39.041843,15.624432 37.817169,16.773212 37.911552,19.892172 
	C37.971081,21.859243 37.164196,23.852531 36.351109,25.917065 
z"/>
<path fill="#70BDC6" opacity="1.000000" stroke="none" 
	d="
M429.758301,84.870049 
	C423.488800,86.233894 417.418274,86.531715 412.160645,81.307831 
	C412.000366,81.000145 412.081055,80.919014 412.484467,80.939575 
	C418.097076,84.214600 423.565216,84.897835 429.389709,82.774422 
	C430.597565,82.334084 431.957428,82.310860 433.077454,82.371323 
	C431.857849,83.388184 430.808075,84.129120 429.758301,84.870049 
z"/>
<path fill="#E9FBFC" opacity="1.000000" stroke="none" 
	d="
M42.000790,16.468863 
	C42.169987,16.000380 42.338909,16.000532 42.761280,16.002575 
	C43.050358,29.025032 43.085987,42.045601 43.049896,55.529663 
	C42.652313,54.267502 42.057240,52.543869 42.044254,50.815861 
	C41.959377,39.523602 42.000546,28.230394 42.000790,16.468863 
z"/>
<path fill="#70BDC6" opacity="1.000000" stroke="none" 
	d="
M438.056854,76.009521 
	C438.056854,76.009521 437.910217,76.367279 437.671906,76.619354 
	C437.433594,76.871429 436.986847,76.974388 436.982239,76.515640 
	C437.656036,68.804176 436.754700,61.954468 431.890381,56.115761 
	C431.890381,56.115761 431.998627,56.002003 432.052979,55.944946 
	C433.990875,58.368568 435.874420,60.849251 437.878296,64.009216 
	C438.298035,65.525421 438.597443,66.362335 438.896851,67.199249 
	C438.877655,68.841019 438.858459,70.482803 438.626740,72.778229 
	C438.295105,74.291084 438.175995,75.150307 438.056854,76.009521 
z"/>
<path fill="#E9FBFC" opacity="1.000000" stroke="none" 
	d="
M74.431076,11.999304 
	C77.776749,10.740465 81.544914,9.510960 85.658134,8.125414 
	C86.323814,8.086170 86.585480,8.281832 86.899864,8.777587 
	C87.166313,11.851724 87.321060,14.704632 87.169281,17.806297 
	C86.521080,15.974235 86.179405,13.893415 85.675064,10.821938 
	C82.139053,11.216237 78.496315,11.622437 74.431076,11.999304 
z"/>
<path fill="#E9FBFC" opacity="1.000000" stroke="none" 
	d="
M50.743484,102.499481 
	C51.042873,102.996239 51.027306,103.287285 51.008621,103.800163 
	C46.982002,102.979019 42.321739,102.616096 43.091766,96.095367 
	C45.568581,97.869606 47.997078,100.081612 50.743484,102.499481 
z"/>
<path fill="#F1FDFC" opacity="1.000000" stroke="none" 
	d="
M117.315689,62.959557 
	C117.746880,59.805260 118.574715,56.659897 119.616760,53.221802 
	C122.079849,57.942760 121.464424,60.859024 117.315689,62.959557 
z"/>
<path fill="#FEFEFE" opacity="1.000000" stroke="none" 
	d="
M10.618494,30.005678 
	C10.175302,32.189606 9.355508,34.378590 8.268041,36.784103 
	C4.884886,33.333302 5.348665,31.887072 10.618494,30.005678 
z"/>
<path fill="#F1FDFC" opacity="1.000000" stroke="none" 
	d="
M98.050591,13.445724 
	C99.670929,13.339182 101.478683,13.514792 103.642487,13.846506 
	C105.306259,15.505414 106.613983,17.008217 107.914963,18.869293 
	C104.684807,17.394337 101.461403,15.561108 98.050591,13.445724 
z"/>
<path fill="#E5FAFB" opacity="1.000000" stroke="none" 
	d="
M436.986847,76.974388 
	C436.986847,76.974388 437.433594,76.871429 437.654724,76.811913 
	C437.792419,81.664986 435.668732,84.044914 430.158691,84.910995 
	C430.808075,84.129120 431.857849,83.388184 433.314026,82.244469 
	C434.176788,81.290253 434.633118,80.738831 435.359802,80.006660 
	C436.079529,78.880821 436.528931,77.935730 436.987793,76.994568 
	C436.997192,76.998505 436.986847,76.974388 436.986847,76.974388 
z"/>
<path fill="#E5FAFB" opacity="1.000000" stroke="none" 
	d="
M443.640808,68.257980 
	C444.244415,70.744102 444.598999,73.465446 444.952637,76.592041 
	C443.840668,76.362206 442.729706,75.727104 441.511444,75.030685 
	C442.164215,72.761139 442.778015,70.627159 443.640808,68.257980 
z"/>
<path fill="#F6FDFC" opacity="1.000000" stroke="none" 
	d="
M4.109280,48.296524 
	C4.758836,49.580662 5.059631,50.962872 5.360426,52.345081 
	C4.643446,52.379436 3.926467,52.413792 3.209488,52.448147 
	C3.393165,51.096962 3.576842,49.745777 4.109280,48.296524 
z"/>
<path fill="#E9FBFC" opacity="1.000000" stroke="none" 
	d="
M42.685875,74.301582 
	C42.927654,78.609093 42.877182,83.211349 42.526146,88.161736 
	C42.281597,83.872025 42.337616,79.234169 42.685875,74.301582 
z"/>
<path fill="#F1FDFC" opacity="1.000000" stroke="none" 
	d="
M99.068024,83.132324 
	C99.805382,82.398438 100.542740,81.664551 101.579895,80.821198 
	C101.152588,82.439774 100.425468,84.167816 99.332726,85.574333 
	C99.000740,84.545975 99.034378,83.839149 99.068024,83.132324 
z"/>
<path fill="#F1FDFC" opacity="1.000000" stroke="none" 
	d="
M114.070999,68.894669 
	C114.563133,67.018845 115.483109,65.180077 116.675888,63.137478 
	C116.331940,65.014633 118.809853,68.359612 114.070999,68.894669 
z"/>
<path fill="#E9FBFC" opacity="1.000000" stroke="none" 
	d="
M76.466492,90.393890 
	C76.762833,93.396744 76.833466,96.717003 76.820602,100.480621 
	C76.571663,97.519753 76.406219,94.115524 76.466492,90.393890 
z"/>
<path fill="#F1FDFC" opacity="1.000000" stroke="none" 
	d="
M93.851700,85.999176 
	C94.464729,86.045364 94.689857,86.219749 94.943085,86.673492 
	C94.325859,87.305763 93.616379,87.741493 92.906906,88.177223 
	C93.113914,87.466339 93.320923,86.755455 93.851700,85.999176 
z"/>
<path fill="#E9FBFC" opacity="1.000000" stroke="none" 
	d="
M76.467422,57.374283 
	C76.747833,59.407993 76.810326,61.738449 76.780731,64.496094 
	C76.542274,62.505863 76.395897,60.088444 76.467422,57.374283 
z"/>
<path fill="#E9FBFC" opacity="1.000000" stroke="none" 
	d="
M76.471146,73.372620 
	C76.751312,75.407173 76.812744,77.738159 76.782089,80.496407 
	C76.544144,78.505463 76.398277,76.087257 76.471146,73.372620 
z"/>
<path fill="#E5FAFB" opacity="1.000000" stroke="none" 
	d="
M449.129639,83.138046 
	C450.309998,83.308525 451.506348,83.866058 452.912292,84.678757 
	C451.796509,84.464325 450.471069,83.994720 449.129639,83.138046 
z"/>
<path fill="#E5FAFB" opacity="1.000000" stroke="none" 
	d="
M438.382202,75.956512 
	C438.175995,75.150307 438.295105,74.291084 438.633606,73.188980 
	C438.804474,73.931892 438.756012,74.917694 438.382202,75.956512 
z"/>
<path fill="#F1FDFC" opacity="1.000000" stroke="none" 
	d="
M112.922501,23.731743 
	C111.959656,23.304852 111.027992,22.491903 109.992332,21.384464 
	C110.910126,21.841877 111.931908,22.593781 112.922501,23.731743 
z"/>
<path fill="#F6FDFC" opacity="1.000000" stroke="none" 
	d="
M42.109341,90.103027 
	C42.341251,91.127571 42.190247,92.135193 41.703018,93.356087 
	C41.486671,92.408272 41.606548,91.247185 42.109341,90.103027 
z"/>
<path fill="#CBEFF3" opacity="1.000000" stroke="none" 
	d="
M98.781021,83.224228 
	C99.034378,83.839149 99.000740,84.545975 98.953506,85.606033 
	C98.446701,85.923813 97.953491,85.888367 97.103409,85.733841 
	C97.329033,84.848549 97.911530,84.082336 98.781021,83.224228 
z"/>
<path fill="#E5FAFB" opacity="1.000000" stroke="none" 
	d="
M445.109589,78.091080 
	C445.787201,78.558182 446.418793,79.417839 447.138947,80.586670 
	C446.506195,80.091774 445.784882,79.287704 445.109589,78.091080 
z"/>
<path fill="#E5FAFB" opacity="1.000000" stroke="none" 
	d="
M438.938904,66.841278 
	C438.597443,66.362335 438.298035,65.525421 438.002563,64.345993 
	C438.331360,64.830086 438.656158,65.656693 438.938904,66.841278 
z"/>
<path fill="#E5FAFB" opacity="1.000000" stroke="none" 
	d="
M450.782440,55.045151 
	C450.617981,55.381855 450.135773,55.713707 449.354431,56.082016 
	C449.525116,55.759083 449.994904,55.399693 450.782440,55.045151 
z"/>
<path fill="#F1FDFC" opacity="1.000000" stroke="none" 
	d="
M109.839050,20.850399 
	C109.631386,20.934214 109.315582,20.757299 108.877625,20.329269 
	C109.080620,20.248659 109.405769,20.419163 109.839050,20.850399 
z"/>
<path fill="#E5FAFB" opacity="1.000000" stroke="none" 
	d="
M448.856445,56.150986 
	C448.920258,56.351814 448.736572,56.637825 448.305389,57.009750 
	C448.241608,56.809170 448.425262,56.522667 448.856445,56.150986 
z"/>
<path fill="#CBEFF3" opacity="1.000000" stroke="none" 
	d="
M96.008972,86.744919 
	C95.849060,86.473351 96.023239,86.210709 96.481827,85.895996 
	C96.556068,86.101387 96.415009,86.404694 96.008972,86.744919 
z"/>
<path fill="#E5FAFB" opacity="1.000000" stroke="none" 
	d="
M447.838501,57.163925 
	C447.920807,57.363094 447.746094,57.671238 447.335510,58.113342 
	C447.260223,57.922508 447.420868,57.597706 447.838501,57.163925 
z"/>
<path fill="#E5FAFB" opacity="1.000000" stroke="none" 
	d="
M445.695190,60.142193 
	C445.806488,60.320583 445.689209,60.660908 445.360931,61.179459 
	C445.255493,61.006504 445.361053,60.655315 445.695190,60.142193 
z"/>
<path fill="#CBEFF3" opacity="1.000000" stroke="none" 
	d="
M107.941971,74.724693 
	C107.884735,74.486244 108.109360,74.239578 108.571793,73.910431 
	C108.614342,74.124123 108.419083,74.420296 107.941971,74.724693 
z"/>
<path fill="#CBEFF3" opacity="1.000000" stroke="none" 
	d="
M109.100189,73.744675 
	C109.004272,73.525421 109.178032,73.243355 109.572815,72.836464 
	C109.652519,73.035049 109.511192,73.358459 109.100189,73.744675 
z"/>
<path fill="#E5FAFB" opacity="1.000000" stroke="none" 
	d="
M444.679932,63.180618 
	C444.812927,63.361820 444.720825,63.719822 444.413788,64.266251 
	C444.284180,64.088913 444.369507,63.723167 444.679932,63.180618 
z"/>
<path fill="#CBEFF3" opacity="1.000000" stroke="none" 
	d="
M112.038193,70.787582 
	C111.973862,70.569267 112.186859,70.298073 112.637695,69.916367 
	C112.688850,70.115463 112.502190,70.425079 112.038193,70.787582 
z"/>
<path fill="#FDFFFE" opacity="1.000000" stroke="none" 
	d="
M21.824381,12.676432 
	C21.240847,14.920723 20.786530,17.049442 19.647224,18.707485 
	C17.992918,21.115023 15.999412,23.487226 12.209461,22.739719 
	C10.183659,21.180952 8.368013,19.361849 6.552369,17.542746 
	C6.842910,17.135250 7.133452,16.727755 7.423995,16.320261 
	C8.465953,16.449427 9.635922,16.941017 10.521749,16.628139 
	C12.097570,16.071550 14.397491,15.339160 14.816726,14.132236 
	C16.354942,9.703901 18.724695,10.424333 21.824381,12.676432 
z"/>
<path fill="#E9FBFC" opacity="1.000000" stroke="none" 
	d="
M60.895458,13.112835 
	C55.865036,12.333893 50.834610,11.554951 45.373642,10.651382 
	C44.959606,10.189935 44.976116,9.853111 44.998810,9.262496 
	C47.703186,9.007389 50.401382,9.006075 53.549377,9.005348 
	C56.103989,9.573236 58.208801,10.140538 60.650063,11.208225 
	C60.956161,12.176686 60.925812,12.644760 60.895458,13.112835 
z"/>
<path fill="#FDFFFE" opacity="1.000000" stroke="none" 
	d="
M11.738205,25.205511 
	C11.883841,25.970352 11.767016,26.940897 11.325891,27.956013 
	C11.159641,27.137459 11.317694,26.274338 11.738205,25.205511 
z"/>
<path fill="#E9FBFC" opacity="1.000000" stroke="none" 
	d="
M43.097614,11.783783 
	C42.693874,11.906357 42.427860,11.722525 42.116631,11.225817 
	C42.209866,11.016426 42.412174,11.027527 42.916451,11.079005 
	C43.218422,11.119383 43.171482,11.569762 43.097614,11.783783 
z"/>
<path fill="#FCFEFD" opacity="1.000000" stroke="none" 
	d="
M60.905014,13.099068 
	C60.925812,12.644760 60.956161,12.176686 60.987572,11.357233 
	C63.147907,11.148793 65.307182,11.291730 67.737396,12.078616 
	C68.027962,13.197346 68.047585,13.672127 68.067215,14.146908 
	C67.583214,14.440076 67.099220,14.733245 66.154732,14.715727 
	C64.101509,13.962519 62.508770,13.520000 60.916031,13.077481 
	C60.916031,13.077481 60.914566,13.085299 60.905014,13.099068 
z"/>
<path fill="#E9FBFC" opacity="1.000000" stroke="none" 
	d="
M68.400070,14.116423 
	C68.047585,13.672127 68.027962,13.197346 68.006226,12.366749 
	C69.105469,12.024411 70.206818,12.037890 71.719856,12.112593 
	C70.998680,12.811191 69.865814,13.448565 68.400070,14.116423 
z"/>
<path fill="#E9FBFC" opacity="1.000000" stroke="none" 
	d="
M61.103157,13.336636 
	C62.508770,13.520000 64.101509,13.962519 65.864563,14.733202 
	C64.453346,14.572842 62.871815,14.084316 61.103157,13.336636 
z"/>
<path fill="#DAF8F9" opacity="1.000000" stroke="none" 
	d="
M20.273865,55.643768 
	C19.024538,49.854965 19.166983,49.714275 25.916090,50.276306 
	C25.916090,54.615692 25.916090,59.008667 25.916090,63.401642 
	C25.472166,63.533249 25.028240,63.664856 24.584316,63.796459 
	C23.193665,61.196659 21.803015,58.596859 20.273865,55.643768 
z"/>
<path fill="#E5FAFB" opacity="1.000000" stroke="none" 
	d="
M23.633539,30.827230 
	C24.303194,30.066074 24.747431,29.570616 25.712955,28.493769 
	C25.712955,32.818119 25.712955,36.549690 25.712955,40.615814 
	C23.669762,40.615814 21.757994,40.615814 18.651632,40.615814 
	C20.418808,37.077782 21.913465,34.085358 23.633539,30.827230 
z"/>
<path fill="#E9FBFC" opacity="1.000000" stroke="none" 
	d="
M103.055122,56.868912 
	C103.048912,47.282726 103.048912,38.173939 103.048912,28.941044 
	C113.179939,36.446705 112.821747,55.223953 103.061333,65.209679 
	C103.061333,62.116570 103.061333,59.731441 103.055122,56.868912 
z"/>
<path fill="#F1FDFC" opacity="1.000000" stroke="none" 
	d="
M95.334084,12.791899 
	C95.481110,11.968667 95.965202,11.278716 96.449295,10.588766 
	C96.930542,11.250812 97.411789,11.912857 97.847107,12.905578 
	C97.091171,13.132562 96.381157,13.028871 95.334084,12.791899 
z"/>
<path fill="#EEFAFB" opacity="1.000000" stroke="none" 
	d="
M147.463211,77.292404 
	C147.312210,73.772530 147.312210,70.661102 147.312210,67.083534 
	C151.254654,67.083534 154.871155,66.453133 158.085785,67.317429 
	C160.047821,67.844955 162.184265,70.432220 162.817719,72.525490 
	C163.659637,75.307655 162.016815,77.905655 158.689743,78.041222 
	C155.008636,78.191223 151.306946,77.836037 147.463211,77.292404 
z"/>
<path fill="#E8F7F9" opacity="1.000000" stroke="none" 
	d="
M156.867767,59.185028 
	C155.160995,59.438297 153.850647,59.644566 152.533493,59.788643 
	C149.041046,60.170673 147.000122,59.470486 147.022369,55.073551 
	C147.043747,50.844570 148.759293,49.783962 152.415161,50.221397 
	C153.565582,50.359051 154.912674,50.127834 155.830963,50.655285 
	C157.542786,51.638546 159.961166,52.848736 160.284546,54.351921 
	C160.566055,55.660465 158.365097,57.503063 156.867767,59.185028 
z"/>
<path fill="#F3FBFC" opacity="1.000000" stroke="none" 
	d="
M392.346924,73.078094 
	C388.657806,79.083603 382.851410,78.424911 377.458252,78.536865 
	C376.737091,78.551834 375.357635,76.532524 375.329010,75.428146 
	C375.139282,68.104271 375.281464,60.772575 375.213959,53.444366 
	C375.187958,50.620609 376.796204,50.250885 379.089233,50.241104 
	C390.861084,50.190907 396.003876,56.700363 393.711548,68.922768 
	C393.467987,70.221512 392.937012,71.466347 392.346924,73.078094 
z"/>
<path fill="#F4FDFD" opacity="1.000000" stroke="none" 
	d="
M230.180481,60.531147 
	C235.103989,64.508743 235.804230,69.334366 233.948944,74.638123 
	C232.475632,78.849884 227.197784,80.342491 223.644012,77.753868 
	C220.893036,75.750023 219.826279,69.571754 221.470673,65.202812 
	C222.936905,61.307178 225.340622,59.036987 230.180481,60.531147 
z"/>
<path fill="#F3FBFC" opacity="1.000000" stroke="none" 
	d="
M194.905396,60.839996 
	C198.623840,64.295448 199.589493,68.339279 198.756851,72.815453 
	C198.031555,76.714638 195.639893,79.016258 191.548874,78.922386 
	C187.342224,78.825867 185.230316,76.266556 185.060242,72.270615 
	C184.956711,69.837845 185.001678,67.242371 185.736771,64.964180 
	C187.096268,60.750820 190.012283,58.805164 194.905396,60.839996 
z"/>
<path fill="#59BCC8" opacity="1.000000" stroke="none" 
	d="
M435.089478,80.187416 
	C434.633118,80.738831 434.176788,81.290253 433.483856,81.968536 
	C431.957428,82.310860 430.597565,82.334084 429.389709,82.774422 
	C423.565216,84.897835 418.097076,84.214600 412.524902,80.899094 
	C411.437775,76.637115 410.203186,72.449974 410.089294,68.232559 
	C409.797028,57.408665 419.797760,54.224651 427.190979,55.225929 
	C428.496796,55.402779 429.777954,55.761421 431.480438,56.075935 
	C436.754700,61.954468 437.656036,68.804176 436.982239,76.515640 
	C436.986847,76.974388 436.997192,76.998505 436.634399,77.055527 
	C435.877594,78.137505 435.483551,79.162468 435.089478,80.187416 
M418.417053,61.097858 
	C417.904633,62.386055 417.392242,63.674252 416.877045,65.594826 
	C416.618286,66.390747 416.359528,67.186668 415.497711,68.472939 
	C414.639832,72.095093 414.678375,75.447731 418.187378,77.988052 
	C418.187378,77.988052 418.243866,77.718582 418.436768,78.368301 
	C419.066132,78.522430 419.695496,78.676559 421.123718,78.874550 
	C425.112579,79.321739 428.745575,78.659027 429.762512,74.161636 
	C430.938507,68.960945 430.680908,63.880314 425.505768,59.520664 
	C423.164337,59.245766 420.451538,57.424347 419.007324,60.999134 
	C419.007324,60.999134 419.071716,61.053467 418.417053,61.097858 
z"/>
<path fill="#70BDC6" opacity="1.000000" stroke="none" 
	d="
M435.359802,80.006668 
	C435.483551,79.162468 435.877594,78.137505 436.625000,77.051590 
	C436.528931,77.935730 436.079529,78.880821 435.359802,80.006668 
z"/>
<path fill="#F3FDFD" opacity="1.000000" stroke="none" 
	d="
M425.955719,60.155685 
	C430.680908,63.880314 430.938507,68.960945 429.762512,74.161636 
	C428.745575,78.659027 425.112579,79.321739 420.528137,78.611588 
	C419.369659,78.138611 418.806763,77.928596 418.243866,77.718582 
	C418.243866,77.718582 418.187378,77.988052 418.191650,77.486481 
	C417.497498,73.984146 416.799103,70.983368 416.100739,67.982590 
	C416.359528,67.186668 416.618286,66.390747 417.142914,65.084160 
	C417.963104,63.400150 418.517426,62.226810 419.071716,61.053467 
	C419.071716,61.053467 419.007324,60.999134 419.407837,60.956688 
	C421.857483,60.661388 423.906616,60.408535 425.955719,60.155685 
z"/>
<path fill="#70BDC6" opacity="1.000000" stroke="none" 
	d="
M415.799225,68.227768 
	C416.799103,70.983368 417.497498,73.984146 418.238220,77.356918 
	C414.678375,75.447731 414.639832,72.095093 415.799225,68.227768 
z"/>
<path fill="#70BDC6" opacity="1.000000" stroke="none" 
	d="
M425.730743,59.838173 
	C423.906616,60.408535 421.857483,60.661388 419.430054,60.992409 
	C420.451538,57.424347 423.164337,59.245766 425.730743,59.838173 
z"/>
<path fill="#70BDC6" opacity="1.000000" stroke="none" 
	d="
M418.744385,61.075665 
	C418.517426,62.226810 417.963104,63.400150 417.144287,64.767975 
	C417.392242,63.674252 417.904633,62.386055 418.744385,61.075665 
z"/>
<path fill="#70BDC6" opacity="1.000000" stroke="none" 
	d="
M418.340332,78.043442 
	C418.806763,77.928596 419.369659,78.138611 420.128723,78.589653 
	C419.695496,78.676559 419.066132,78.522430 418.340332,78.043442 
z"/>
</svg>