<svg version="1.1" id="Layer_1" xmlns="http://www.w3.org/2000/svg" xmlns:xlink="http://www.w3.org/1999/xlink" x="0px" y="0px"
	 width="100%" viewBox="0 0 146 142" enable-background="new 0 0 146 142" xml:space="preserve">
<path fill="#FFFFFF" opacity="1.000000" stroke="none" 
	d="
M77.000000,143.000000 
	C51.355186,143.000000 26.210375,143.000000 1.032781,143.000000 
	C1.032781,95.729645 1.032781,48.459259 1.032781,1.094436 
	C49.561283,1.094436 98.122810,1.094436 146.842163,1.094436 
	C146.842163,48.332920 146.842163,95.666405 146.842163,143.000000 
	C123.792938,143.000000 100.646469,143.000000 77.000000,143.000000 
M109.512665,19.002768 
	C109.341980,19.000990 109.171295,18.999210 108.501373,18.441509 
	C107.001831,18.293203 105.502289,18.144897 103.789543,17.557487 
	C103.591904,17.283230 103.331940,17.095039 102.910118,16.258169 
	C102.110611,15.535777 101.216972,14.112158 100.526894,14.204798 
	C96.048843,14.805954 90.932587,14.618177 87.324707,16.818926 
	C81.733162,20.229675 77.264725,19.033691 72.129013,16.660725 
	C68.717026,15.084208 65.056023,13.815233 61.372253,13.125289 
	C57.888939,12.472889 56.808754,13.844002 57.047604,17.704458 
	C56.972317,18.124584 56.897030,18.544710 56.219803,18.979586 
	C55.817768,18.989698 55.415737,18.999811 54.230320,19.003319 
	C52.742188,18.431017 51.275150,17.793077 49.759598,17.306110 
	C48.423435,16.876780 46.457703,15.872710 45.765499,16.408524 
	C42.636139,18.830849 39.653923,20.490175 35.394970,19.555058 
	C32.622288,18.946272 29.607450,19.440344 26.075808,19.440344 
	C26.276848,24.710651 29.399506,30.663918 23.504026,34.771885 
	C22.344067,34.239281 21.096273,33.666348 19.848927,33.093616 
	C18.934093,35.775486 17.501656,38.106190 17.534687,40.415939 
	C17.566214,42.620621 19.124254,44.803467 20.015444,47.661484 
	C20.020544,48.104961 20.025644,48.548435 19.392210,49.319260 
	C17.714104,52.732712 14.820870,55.739048 16.708174,60.161972 
	C18.904488,65.309067 20.798450,70.586510 22.748302,75.835373 
	C22.945761,76.366913 22.609917,77.089317 22.548674,77.725761 
	C22.428974,78.969643 22.328440,80.215370 22.219973,81.460335 
	C23.483210,80.962746 24.746447,80.465164 26.545818,80.356888 
	C28.365353,82.234489 30.184885,84.112099 32.009777,86.724869 
	C34.952660,90.322632 37.927200,93.895081 40.830425,97.524567 
	C44.477276,102.083687 49.260098,104.077110 55.025055,104.796272 
	C55.505543,108.600578 56.408142,112.222664 59.804016,114.574051 
	C61.471531,115.728668 63.230480,117.458893 64.983421,117.502373 
	C65.949341,117.526314 67.791458,114.631454 67.864182,112.991531 
	C68.330727,102.471436 68.502914,91.935143 68.589325,81.402679 
	C68.629997,76.444458 68.148071,71.483818 68.109566,66.522667 
	C68.037895,57.289845 68.051231,48.054905 68.182472,38.823025 
	C68.213829,36.617390 68.848297,34.420330 69.205376,32.219322 
	C69.716515,32.237625 70.227661,32.255924 70.738800,32.274223 
	C71.156357,33.249737 71.862587,34.201981 71.943398,35.204632 
	C72.381767,40.643524 72.992134,46.098106 72.938179,51.541286 
	C72.805038,64.974876 72.289566,78.404282 72.058723,91.837624 
	C72.013748,94.454506 72.751572,97.078049 72.799881,99.704567 
	C72.954437,108.106339 72.929085,116.511246 73.026855,124.914322 
	C73.066628,128.332535 74.363014,130.034760 78.712952,128.215500 
	C79.473587,128.137375 80.234215,128.059235 81.397034,128.494507 
	C90.602249,127.689888 85.091255,119.540497 87.958321,115.117386 
	C94.267937,118.315086 98.578461,114.241440 102.636444,110.533699 
	C103.844757,109.429680 103.495796,106.562119 103.746246,104.488815 
	C103.926208,102.999077 103.916603,101.486443 104.787804,100.090096 
	C107.447227,100.102562 110.879974,101.185760 112.621803,99.927734 
	C117.953430,96.077011 122.794167,91.486343 127.473328,86.829285 
	C128.872986,85.436249 129.114944,82.879990 129.983215,80.970680 
	C129.983215,80.970680 129.859756,80.887268 130.647903,80.956001 
	C138.413635,78.971497 138.411804,78.971817 137.203873,72.042183 
	C137.148132,71.722366 137.051514,71.320267 137.185623,71.069878 
	C140.391815,65.083977 139.564453,58.456600 140.007858,52.081200 
	C140.195633,49.381416 138.859833,46.607838 138.551910,43.830608 
	C138.329910,41.828468 138.069153,39.472240 138.893661,37.800732 
	C139.990585,35.576954 140.333527,34.352993 137.873199,33.043652 
	C136.349289,32.232658 135.263687,30.572327 133.723480,29.823809 
	C131.504059,28.745207 129.050293,28.148775 126.823143,27.179192 
	C126.823143,27.179192 126.652222,27.300962 126.875748,26.508341 
	C126.725990,25.710300 126.860596,24.566252 126.379745,24.171076 
	C123.523872,21.824020 120.723648,19.258448 117.475090,17.616119 
	C116.219955,16.981581 113.839310,18.573322 111.501183,19.158951 
	C111.501183,19.158951 111.048767,19.030420 110.536583,18.996880 
	C110.365868,19.004692 110.195152,19.012505 109.512665,19.002768 
M93.482750,117.588989 
	C93.482750,117.588989 93.415352,117.476494 93.482750,117.588989 
z"/>
<path fill="#62B9C6" opacity="1.000000" stroke="none" 
	d="
M80.994850,127.981110 
	C80.234215,128.059235 79.473587,128.137375 78.182556,127.829773 
	C76.693756,124.930435 74.919998,122.422638 74.902046,119.902336 
	C74.705002,92.239487 74.788391,64.574684 74.778862,36.910416 
	C74.776680,30.553932 73.100883,28.881414 65.856110,28.575165 
	C65.856110,57.265038 65.856110,85.930634 65.856110,114.596237 
	C65.316231,114.782097 64.776352,114.967964 64.236473,115.153824 
	C61.958611,110.832008 56.820290,108.954979 56.881073,102.442276 
	C57.140755,74.619072 56.887741,46.791080 56.821747,18.964836 
	C56.897030,18.544710 56.972317,18.124584 57.513992,17.381260 
	C64.576653,18.457645 71.161987,19.912842 77.777519,21.214569 
	C79.280075,21.510223 80.938232,21.532717 82.437523,21.237625 
	C88.879356,19.969727 95.288658,18.536507 101.806900,17.612850 
	C101.959961,45.862083 102.023613,73.661964 102.066246,101.461884 
	C102.076439,108.106377 99.106255,112.069717 92.061462,114.455566 
	C92.061462,85.732208 92.061462,57.174500 92.061462,28.430233 
	C86.786171,28.695210 84.659874,30.622797 84.704643,35.877098 
	C84.934410,62.845860 84.741768,89.817970 84.866470,116.788124 
	C84.886482,121.116470 84.549583,125.027664 80.994850,127.981110 
z"/>
<path fill="#63B9C5" opacity="1.000000" stroke="none" 
	d="
M111.048767,19.030420 
	C111.048767,19.030420 111.501183,19.158951 111.966263,19.398312 
	C117.171638,22.192101 121.911926,24.746532 126.652222,27.300962 
	C126.652222,27.300962 126.823143,27.179192 126.790367,27.594070 
	C134.784454,37.573830 139.532867,48.364033 136.813126,60.962666 
	C135.340012,67.786545 132.230865,74.257240 129.859756,80.887268 
	C129.859756,80.887268 129.983215,80.970680 129.600220,80.970886 
	C123.279884,86.564217 117.342529,92.157341 111.405167,97.750465 
	C110.972656,97.617874 110.540154,97.485283 110.107643,97.352692 
	C110.107643,89.241486 110.107643,81.130280 110.146881,72.759109 
	C110.159332,72.325920 110.132553,72.152702 110.159485,71.538200 
	C110.133934,68.728111 110.054688,66.359322 110.039200,63.528099 
	C110.053848,58.049652 110.004730,53.033627 110.014503,47.581757 
	C110.033829,45.097202 109.994263,43.048500 110.021194,40.566048 
	C110.047424,38.088448 110.007149,36.044586 110.022797,33.667274 
	C110.043945,32.885818 110.009178,32.437824 110.037476,31.534496 
	C110.073814,27.403534 110.047081,23.727903 110.230949,19.923046 
	C110.723869,19.602907 110.926270,19.348442 111.048767,19.030420 
M127.078415,59.424694 
	C127.598106,47.342983 125.333900,39.997707 120.160202,36.986900 
	C120.160202,48.680805 120.160202,60.374714 120.160202,72.386673 
	C125.250450,69.601585 126.024269,64.875061 127.078415,59.424694 
z"/>
<path fill="#EAFCFC" opacity="1.000000" stroke="none" 
	d="
M81.195938,128.237808 
	C84.549583,125.027664 84.886482,121.116470 84.866470,116.788124 
	C84.741768,89.817970 84.934410,62.845860 84.704643,35.877098 
	C84.659874,30.622797 86.786171,28.695210 92.061462,28.430233 
	C92.061462,57.174500 92.061462,85.732208 92.061462,114.455566 
	C99.106255,112.069717 102.076439,108.106377 102.066246,101.461884 
	C102.023613,73.661964 101.959961,45.862083 102.130692,17.557451 
	C102.574821,17.032780 102.792244,17.012846 103.009666,16.992914 
	C103.331940,17.095039 103.591904,17.283230 103.894745,18.239384 
	C103.997147,45.942196 103.994362,72.963112 103.991570,99.984024 
	C103.916603,101.486443 103.926208,102.999077 103.746246,104.488815 
	C103.495796,106.562119 103.844757,109.429680 102.636444,110.533699 
	C98.578461,114.241440 94.267937,118.315086 87.958321,115.117386 
	C85.091255,119.540497 90.602249,127.689888 81.195938,128.237808 
z"/>
<path fill="#F7FDFC" opacity="1.000000" stroke="none" 
	d="
M20.011257,46.995914 
	C19.124254,44.803467 17.566214,42.620621 17.534687,40.415939 
	C17.501656,38.106190 18.934093,35.775486 19.848927,33.093616 
	C21.096273,33.666348 22.344067,34.239281 23.504026,34.771885 
	C29.399506,30.663918 26.276848,24.710651 26.075808,19.440344 
	C29.607450,19.440344 32.622288,18.946272 35.394970,19.555058 
	C39.653923,20.490175 42.636139,18.830849 45.765499,16.408524 
	C46.457703,15.872710 48.423435,16.876780 49.759598,17.306110 
	C51.275150,17.793077 52.742188,18.431017 54.620232,19.474148 
	C55.009205,47.961994 55.008270,75.979012 55.007336,103.996033 
	C49.260098,104.077110 44.477276,102.083687 40.830425,97.524567 
	C37.927200,93.895081 34.952660,90.322632 32.291534,86.342339 
	C33.044003,85.688362 33.514717,85.416924 34.286354,85.268158 
	C37.733631,88.573608 40.879986,91.756378 44.115662,95.178345 
	C44.478889,95.607193 44.752789,95.796837 45.325470,96.165535 
	C46.418278,96.827927 47.212303,97.311272 48.300331,97.973579 
	C48.300331,71.509293 48.300331,45.496185 48.300331,19.106783 
	C35.748550,22.853615 27.876398,30.768749 22.731184,42.154930 
	C21.621017,43.863327 20.816137,45.429623 20.011257,46.995914 
z"/>
<path fill="#E2F8F9" opacity="1.000000" stroke="none" 
	d="
M55.016197,104.396149 
	C55.008270,75.979012 55.009205,47.961994 55.011921,19.477448 
	C55.415737,18.999811 55.817768,18.989698 56.520775,18.972210 
	C56.887741,46.791080 57.140755,74.619072 56.881073,102.442276 
	C56.820290,108.954979 61.958611,110.832008 64.236473,115.153824 
	C64.776352,114.967964 65.316231,114.782097 65.856110,114.596237 
	C65.856110,85.930634 65.856110,57.265038 65.856110,28.575165 
	C73.100883,28.881414 74.776680,30.553932 74.778862,36.910416 
	C74.788391,64.574684 74.705002,92.239487 74.902046,119.902336 
	C74.919998,122.422638 76.693756,124.930435 77.800156,127.788727 
	C74.363014,130.034760 73.066628,128.332535 73.026855,124.914322 
	C72.929085,116.511246 72.954437,108.106339 72.799881,99.704567 
	C72.751572,97.078049 72.013748,94.454506 72.058723,91.837624 
	C72.289566,78.404282 72.805038,64.974876 72.938179,51.541286 
	C72.992134,46.098106 72.381767,40.643524 71.943398,35.204632 
	C71.862587,34.201981 71.156357,33.249737 70.738800,32.274223 
	C70.227661,32.255924 69.716515,32.237625 69.205376,32.219322 
	C68.848297,34.420330 68.213829,36.617390 68.182472,38.823025 
	C68.051231,48.054905 68.037895,57.289845 68.109566,66.522667 
	C68.148071,71.483818 68.629997,76.444458 68.589325,81.402679 
	C68.502914,91.935143 68.330727,102.471436 67.864182,112.991531 
	C67.791458,114.631454 65.949341,117.526314 64.983421,117.502373 
	C63.230480,117.458893 61.471531,115.728668 59.804016,114.574051 
	C56.408142,112.222664 55.505543,108.600578 55.016197,104.396149 
z"/>
<path fill="#F2FBFC" opacity="1.000000" stroke="none" 
	d="
M104.389687,100.037064 
	C103.994362,72.963112 103.997147,45.942196 104.001343,18.458937 
	C105.502289,18.144897 107.001831,18.293203 108.750595,19.180727 
	C109.324684,23.943239 109.649551,27.966534 109.974411,31.989828 
	C110.009178,32.437824 110.043945,32.885818 109.650574,33.747063 
	C107.496826,36.651016 106.735298,39.038509 109.954689,40.999794 
	C109.994263,43.048500 110.033829,45.097202 109.726723,47.878021 
	C109.578506,53.736931 109.776970,58.863728 109.975433,63.990528 
	C110.054688,66.359322 110.133934,68.728111 109.970688,71.625763 
	C109.854683,72.442764 109.981163,72.730919 110.107643,73.019073 
	C110.107643,81.130280 110.107643,89.241486 110.107643,97.352692 
	C110.540154,97.485283 110.972656,97.617874 111.405167,97.750465 
	C117.342529,92.157341 123.279884,86.564217 129.552277,80.913879 
	C129.114944,82.879990 128.872986,85.436249 127.473328,86.829285 
	C122.794167,91.486343 117.953430,96.077011 112.621803,99.927734 
	C110.879974,101.185760 107.447227,100.102562 104.389687,100.037064 
z"/>
<path fill="#F2FBFC" opacity="1.000000" stroke="none" 
	d="
M130.253830,80.921631 
	C132.230865,74.257240 135.340012,67.786545 136.813126,60.962666 
	C139.532867,48.364033 134.784454,37.573830 126.727066,27.677761 
	C129.050293,28.148775 131.504059,28.745207 133.723480,29.823809 
	C135.263687,30.572327 136.349289,32.232658 137.873199,33.043652 
	C140.333527,34.352993 139.990585,35.576954 138.893661,37.800732 
	C138.069153,39.472240 138.329910,41.828468 138.551910,43.830608 
	C138.859833,46.607838 140.195633,49.381416 140.007858,52.081200 
	C139.564453,58.456600 140.391815,65.083977 137.185623,71.069878 
	C137.051514,71.320267 137.148132,71.722366 137.203873,72.042183 
	C138.411804,78.971817 138.413635,78.971497 130.253830,80.921631 
z"/>
<path fill="#EEFCFD" opacity="1.000000" stroke="none" 
	d="
M102.959892,16.625542 
	C102.792244,17.012846 102.574821,17.032780 102.033600,17.108116 
	C95.288658,18.536507 88.879356,19.969727 82.437523,21.237625 
	C80.938232,21.532717 79.280075,21.510223 77.777519,21.214569 
	C71.161987,19.912842 64.576653,18.457645 57.565147,17.065014 
	C56.808754,13.844002 57.888939,12.472889 61.372253,13.125289 
	C65.056023,13.815233 68.717026,15.084208 72.129013,16.660725 
	C77.264725,19.033691 81.733162,20.229675 87.324707,16.818926 
	C90.932587,14.618177 96.048843,14.805954 100.526894,14.204798 
	C101.216972,14.112158 102.110611,15.535777 102.959892,16.625542 
z"/>
<path fill="#F7FDFC" opacity="1.000000" stroke="none" 
	d="
M26.009684,79.967575 
	C24.746447,80.465164 23.483210,80.962746 22.219973,81.460335 
	C22.328440,80.215370 22.428974,78.969643 22.548674,77.725761 
	C22.609917,77.089317 22.945761,76.366913 22.748302,75.835373 
	C20.798450,70.586510 18.904488,65.309067 16.708174,60.161972 
	C14.820870,55.739048 17.714104,52.732712 19.979603,49.161827 
	C20.925137,49.016907 21.283276,49.029419 21.701132,49.400364 
	C21.918940,50.712376 22.077032,51.665958 22.165543,53.047234 
	C22.104645,54.050900 22.113329,54.626881 21.940399,55.524429 
	C21.547628,57.550877 21.336473,59.255749 20.827911,61.189571 
	C20.387838,64.818253 19.558321,68.500687 24.134327,70.131226 
	C24.210331,70.272964 24.194708,70.594246 24.198057,70.876160 
	C24.433245,71.437943 24.665083,71.717827 24.960600,72.318146 
	C25.079943,73.289413 25.135607,73.940247 25.219452,74.889023 
	C25.548706,75.421021 25.849779,75.655067 26.175369,75.873947 
	C26.199886,75.858795 26.253525,75.837685 26.179882,76.246094 
	C26.074053,77.758865 26.041868,78.863220 26.009684,79.967575 
z"/>
<path fill="#F2FBFC" opacity="1.000000" stroke="none" 
	d="
M126.763985,26.904652 
	C121.911926,24.746532 117.171638,22.192101 112.201385,19.394234 
	C113.839310,18.573322 116.219955,16.981581 117.475090,17.616119 
	C120.723648,19.258448 123.523872,21.824020 126.379745,24.171076 
	C126.860596,24.566252 126.725990,25.710300 126.763985,26.904652 
z"/>
<path fill="#DBF7F9" opacity="1.000000" stroke="none" 
	d="
M26.277752,80.162231 
	C26.041868,78.863220 26.074053,77.758865 26.453598,76.430237 
	C29.195782,79.185806 31.590609,82.165642 33.985435,85.145485 
	C33.514717,85.416924 33.044003,85.688362 32.288853,85.974754 
	C30.184885,84.112099 28.365353,82.234489 26.277752,80.162231 
z"/>
<path fill="#D7F6F6" opacity="1.000000" stroke="none" 
	d="
M21.641415,49.041935 
	C21.283276,49.029419 20.925137,49.016907 20.298870,48.998154 
	C20.025644,48.548435 20.020544,48.104961 20.013351,47.328697 
	C20.816137,45.429623 21.621017,43.863327 22.737667,42.551617 
	C22.580095,44.884781 22.110754,46.963356 21.641415,49.041935 
z"/>
<path fill="#EAFCFC" opacity="1.000000" stroke="none" 
	d="
M110.037476,31.534496 
	C109.649551,27.966534 109.324684,23.943239 109.000214,19.458687 
	C109.171295,18.999210 109.341980,19.000990 109.765289,19.269402 
	C110.018723,19.708113 110.019531,19.880192 110.020348,20.052273 
	C110.047081,23.727903 110.073814,27.403534 110.037476,31.534496 
z"/>
<path fill="#EAFCFC" opacity="1.000000" stroke="none" 
	d="
M93.449051,117.532745 
	C93.415352,117.476494 93.482750,117.588989 93.449051,117.532745 
z"/>
<path fill="#F2FBFC" opacity="1.000000" stroke="none" 
	d="
M110.230949,19.923046 
	C110.019531,19.880192 110.018723,19.708113 110.021172,19.278175 
	C110.195152,19.012505 110.365868,19.004692 110.792679,19.013649 
	C110.926270,19.348442 110.723869,19.602907 110.230949,19.923046 
z"/>
<path fill="#E9FCFC" opacity="1.000000" stroke="none" 
	d="
M127.065552,59.858055 
	C126.024269,64.875061 125.250450,69.601585 120.160202,72.386673 
	C120.160202,60.374714 120.160202,48.680805 120.160805,36.986099 
	C125.333900,39.997707 127.598106,47.342983 127.065552,59.858055 
z"/>
<path fill="#EAFCFC" opacity="1.000000" stroke="none" 
	d="
M110.039200,63.528099 
	C109.776970,58.863728 109.578506,53.736931 109.667824,48.313866 
	C110.004730,53.033627 110.053848,58.049652 110.039200,63.528099 
z"/>
<path fill="#EAFCFC" opacity="1.000000" stroke="none" 
	d="
M110.021194,40.566048 
	C106.735298,39.038509 107.496826,36.651016 109.594658,34.080517 
	C110.007149,36.044586 110.047424,38.088448 110.021194,40.566048 
z"/>
<path fill="#EAFCFC" opacity="1.000000" stroke="none" 
	d="
M110.146881,72.759109 
	C109.981163,72.730919 109.854683,72.442764 109.916985,72.067047 
	C110.132553,72.152702 110.159332,72.325920 110.146881,72.759109 
z"/>
<path fill="#62BBC6" opacity="1.000000" stroke="none" 
	d="
M21.701132,49.400364 
	C22.110754,46.963356 22.580095,44.884781 23.042952,42.409515 
	C27.876398,30.768749 35.748550,22.853615 48.300331,19.106783 
	C48.300331,45.496185 48.300331,71.509293 48.300331,97.973579 
	C47.212303,97.311272 46.418278,96.827927 45.251488,95.916191 
	C44.594597,95.304916 44.310467,95.122032 44.026337,94.939148 
	C40.879986,91.756378 37.733631,88.573608 34.286354,85.268158 
	C31.590609,82.165642 29.195782,79.185806 26.527241,76.021820 
	C26.253525,75.837685 26.199886,75.858795 26.098644,75.605453 
	C25.728691,75.098442 25.459980,74.844757 25.191271,74.591072 
	C25.135607,73.940247 25.079943,73.289413 24.950459,72.042114 
	C24.649330,71.161850 24.422018,70.878044 24.194708,70.594246 
	C24.194708,70.594246 24.210331,70.272964 24.109310,69.753677 
	C23.047298,66.476471 22.086308,63.718544 21.125317,60.960621 
	C21.336473,59.255749 21.547628,57.550877 22.238159,55.447384 
	C22.556730,54.239021 22.395926,53.429283 22.235123,52.619541 
	C22.077032,51.665958 21.918940,50.712376 21.701132,49.400364 
M37.447659,72.551994 
	C37.903629,71.892754 38.359600,71.233513 38.804764,69.848885 
	C38.922321,68.889503 39.039883,67.930130 39.657475,66.396980 
	C39.454613,63.936813 39.251751,61.476646 38.921375,58.691910 
	C38.921375,58.691910 38.912849,58.343288 38.580044,57.644875 
	C36.713024,57.795898 34.846001,57.946922 32.475872,58.534096 
	C32.233952,59.378365 31.992027,60.222637 31.292873,61.621899 
	C31.257807,65.830734 30.993534,70.146263 36.568172,72.025475 
	C36.568172,72.025475 37.025146,72.125580 37.447659,72.551994 
M32.080284,44.981152 
	C31.724348,49.904331 34.668571,49.152901 37.585129,48.584564 
	C38.030968,46.338932 38.680973,44.439980 38.696358,42.535896 
	C38.707878,41.109798 37.902077,39.677097 37.460186,38.247334 
	C36.480366,39.153526 35.408180,39.980759 34.546944,40.988316 
	C33.701031,41.977947 33.069424,43.150764 32.080284,44.981152 
z"/>
<path fill="#D8F4F5" opacity="1.000000" stroke="none" 
	d="
M44.115665,95.178345 
	C44.310467,95.122032 44.594597,95.304916 44.952705,95.737144 
	C44.752789,95.796837 44.478889,95.607193 44.115665,95.178345 
z"/>
<path fill="#DBF7F9" opacity="1.000000" stroke="none" 
	d="
M20.827911,61.189571 
	C22.086308,63.718544 23.047298,66.476471 24.033306,69.611938 
	C19.558321,68.500687 20.387838,64.818253 20.827911,61.189571 
z"/>
<path fill="#D7F6F6" opacity="1.000000" stroke="none" 
	d="
M22.165543,53.047234 
	C22.395926,53.429283 22.556730,54.239021 22.419773,55.125809 
	C22.113329,54.626881 22.104645,54.050900 22.165543,53.047234 
z"/>
<path fill="#DBF7F9" opacity="1.000000" stroke="none" 
	d="
M24.198057,70.876160 
	C24.422018,70.878044 24.649330,71.161850 24.886780,71.721680 
	C24.665083,71.717827 24.433245,71.437943 24.198057,70.876160 
z"/>
<path fill="#DBF7F9" opacity="1.000000" stroke="none" 
	d="
M25.219452,74.889023 
	C25.459980,74.844757 25.728691,75.098442 26.074127,75.620613 
	C25.849779,75.655067 25.548706,75.421021 25.219452,74.889023 
z"/>
<path fill="#E1FAFB" opacity="1.000000" stroke="none" 
	d="
M39.157444,66.970749 
	C39.039883,67.930130 38.922321,68.889503 38.574135,70.398514 
	C37.904057,71.340622 37.464600,71.733101 37.025146,72.125580 
	C37.025146,72.125580 36.568172,72.025475 36.268280,71.637016 
	C34.562290,67.854675 33.156197,64.460793 31.750103,61.066906 
	C31.992027,60.222637 32.233952,59.378365 33.152962,58.342178 
	C35.524319,58.214607 37.218582,58.278946 38.912849,58.343288 
	C38.912849,58.343288 38.921375,58.691910 38.959778,59.295410 
	C39.051266,62.256191 39.104355,64.613472 39.157444,66.970749 
z"/>
<path fill="#EAFDFD" opacity="1.000000" stroke="none" 
	d="
M32.212029,44.612171 
	C33.069424,43.150764 33.701031,41.977947 34.546944,40.988316 
	C35.408180,39.980759 36.480366,39.153526 37.460186,38.247334 
	C37.902077,39.677097 38.707878,41.109798 38.696358,42.535896 
	C38.680973,44.439980 38.030968,46.338932 37.585129,48.584564 
	C34.668571,49.152901 31.724348,49.904331 32.212029,44.612171 
z"/>
<path fill="#75BAC1" opacity="1.000000" stroke="none" 
	d="
M31.521488,61.344402 
	C33.156197,64.460793 34.562290,67.854675 36.036728,71.603912 
	C30.993534,70.146263 31.257807,65.830734 31.521488,61.344402 
z"/>
<path fill="#75BAC1" opacity="1.000000" stroke="none" 
	d="
M39.407459,66.683868 
	C39.104355,64.613472 39.051266,62.256191 39.023533,59.457695 
	C39.251751,61.476646 39.454613,63.936813 39.407459,66.683868 
z"/>
<path fill="#75BAC1" opacity="1.000000" stroke="none" 
	d="
M38.746445,57.994080 
	C37.218582,58.278946 35.524319,58.214607 33.404518,58.124107 
	C34.846001,57.946922 36.713024,57.795898 38.746445,57.994080 
z"/>
<path fill="#75BAC1" opacity="1.000000" stroke="none" 
	d="
M37.236401,72.338791 
	C37.464600,71.733101 37.904057,71.340622 38.579540,70.761208 
	C38.359600,71.233513 37.903629,71.892754 37.236401,72.338791 
z"/>
</svg>